<?xml version="1.0" encoding="iso-8859-1"?>
<!-- Generator: Adobe Illustrator 19.0.0, SVG Export Plug-In . SVG Version: 6.00 Build 0)  -->
<svg xmlns="http://www.w3.org/2000/svg" xmlns:xlink="http://www.w3.org/1999/xlink" version="1.1" id="Layer_1" x="0px" y="0px" viewBox="0 0 439.48 439.48" style="enable-background:new 0 0 439.48 439.48;" xml:space="preserve" width="512" height="512">
<g>
	<path style="fill:#07A521;" d="M383.555,328.382h-30.33c-11.15,0-19.93-9.49-19.07-20.61l9.05-116.74   c0.78-9.96,9.08-17.65,19.07-17.65h42.56c9.99,0,18.3,7.69,19.07,17.65l9.05,116.74c0.86,11.12-7.92,20.61-19.07,20.61H383.555z"/>
	<path style="fill:#07A521;" d="M97.382,328.381l-20.827,0h-30.33c-11.15,0-19.93-9.49-19.07-20.61l9.05-116.74   c0.78-9.96,9.08-17.65,19.07-17.65h42.56c9.99,0,18.29,7.69,19.07,17.65l3.36,43.35h-3.11c-7.28,0-13.33,5.6-13.9,12.86   l-3.31,42.71l-0.89-0.07L97.382,328.381z"/>
	<path style="fill:#0FBC30;" d="M88.905,219.031c-0.78-9.96-9.08-17.65-19.07-17.65H35.403l0.802-10.35   c0.78-9.96,9.08-17.65,19.07-17.65h42.56c9.99,0,18.29,7.69,19.07,17.65l9.05,116.74c0.86,11.12-7.92,20.61-19.07,20.61h-9.503   L88.905,219.031z"/>
	<path style="fill:#0FBC30;" d="M371.205,219.031c0.78-9.96,9.08-17.65,19.07-17.65h34.432l-0.802-10.35   c-0.78-9.96-9.08-17.65-19.07-17.65h-42.56c-9.99,0-18.29,7.69-19.07,17.65l-9.05,116.74c-0.86,11.12,7.92,20.61,19.07,20.61h9.503   L371.205,219.031z"/>
	<path style="fill:#0FBC30;" d="M167.195,339.621c-2.28,4.53-6.97,7.67-12.45,7.67h-44.19c-5.48,0-10.17-3.14-12.45-7.67   c-1.1-2.19-1.65-4.7-1.44-7.34l0.3-3.9l2.98-38.43l3.31-42.71c0.57-7.26,6.62-12.86,13.9-12.86h31c7.27,0,13.33,5.6,13.89,12.86   l6.6,85.04C168.845,334.921,168.305,337.431,167.195,339.621z"/>
	<path style="fill:#07A521;" d="M167.195,339.621c-2.28,4.53-6.97,7.67-12.45,7.67h-44.19c-5.48,0-10.17-3.14-12.45-7.67l1.84-23.67   l3.31-42.71c0.57-7.26,6.62-12.86,13.9-12.86h31c7.27,0,13.33,5.6,13.89,12.86L167.195,339.621z"/>
	<path style="fill:#FFD039;" d="M306.555,352.218v-36.5c0-3.59-2.91-6.5-6.5-6.5h-89.75c-3.59,0-6.5,2.91-6.5,6.5v36.5h-10.75v13   h10.75v32h13v-32h76.75v32h13v-32h10.75v-13H306.555z M293.555,352.218h-76.75v-6.64h76.75V352.218z"/>
	<polygon style="fill:#9B6121;" points="95.875,286.702 102.235,293.062 81.055,314.242 81.055,398.051 72.055,398.051    72.055,292.242 50.875,271.062 57.235,264.702 72.055,279.511 72.055,252.051 81.055,252.051 81.055,262.511 95.875,247.702    102.235,254.062 81.055,275.242 81.055,301.511  "/>
	<polygon style="fill:#9B6121;" points="409.235,271.062 388.055,292.242 388.055,398.051 379.055,398.051 379.055,314.242    357.875,293.062 364.235,286.702 379.055,301.511 379.055,275.242 357.875,254.062 364.235,247.702 379.055,262.511    379.055,252.051 388.055,252.051 388.055,279.511 402.875,264.702  "/>
	<polygon style="fill:#9B6121;" points="148.785,309.292 137.155,315.941 137.155,398.051 128.155,398.051 128.155,316.011    115.775,308.761 120.335,301.002 128.155,305.581 128.155,291.691 137.155,291.691 137.155,305.571 144.325,301.472  "/>
	<polygon style="fill:#562F15;" points="95.875,286.702 102.235,293.062 81.055,314.242 81.055,334.671 72.055,334.671    72.055,292.242 50.875,271.062 57.235,264.702 72.055,279.511 72.055,252.051 81.055,252.051 81.055,262.511 95.875,247.702    102.235,254.062 81.055,275.242 81.055,301.511  "/>
	<polygon style="fill:#562F15;" points="148.785,309.292 137.155,315.941 137.155,331.671 128.155,331.671 128.155,316.011    115.775,308.761 120.335,301.002 128.155,305.581 128.155,291.691 137.155,291.691 137.155,305.571 144.325,301.472  "/>
	<polygon style="fill:#562F15;" points="409.235,271.062 388.055,292.242 388.055,339.671 379.055,339.671 379.055,314.242    357.875,293.062 364.235,286.702 379.055,301.511 379.055,275.242 357.875,254.062 364.235,247.702 379.055,262.511    379.055,252.051 388.055,252.051 388.055,279.511 402.875,264.702  "/>
	<rect x="203.805" y="365.218" style="fill:#EAB932;" width="13" height="7.62"/>
	<rect x="293.555" y="365.218" style="fill:#EAB932;" width="13" height="7.62"/>
	<g>
		<path style="fill:#0FBC30;" d="M439.48,419.228H0c0-4.43,1.13-8.59,3.12-12.22c1.17-2.14,2.64-4.09,4.35-5.8    c4.61-4.62,10.99-7.47,18.03-7.47h388.48c9.65,0,18.05,5.36,22.38,13.27C438.35,410.639,439.48,414.798,439.48,419.228z"/>
		<path style="fill:#07A521;" d="M439.48,419.228H0c0-4.43,1.13-8.59,3.12-12.22h433.24    C438.35,410.639,439.48,414.798,439.48,419.228z"/>
	</g>
	<path style="fill:#666666;" d="M357.843,71.387c-0.537,0.636-1.039,1.296-1.508,1.977c-1.005-1.486-2.146-2.875-3.443-4.094   c-6.334-5.954-14.966-9.021-23.547-6.685c2.593,0.995,5.167,1.807,7.585,3.208c3.423,1.984,6.505,4.539,8.906,7.699   c1.694,2.229,3.109,4.744,4.02,7.398c0.739,2.153,1.261,4.43,1.415,6.706c0.028,0.408-0.148,1.465,0.067,1.809   c0.012,0.019,0.01,0.02,0.018,0.034c-0.002,0.098-0.014,0.195-0.015,0.292c-0.045,3.215,2.923,5.751,6.107,5.034   c2.622-0.59,3.835-2.854,3.853-5.316c0.234-0.58,0.229-2.82,0.315-3.476c0.811-6.127,3.895-11.518,8.24-15.799   c1.906-1.878,4.199-3.512,6.57-4.733c2.251-1.16,4.553-1.959,6.916-2.857C373.852,59.937,364.031,64.051,357.843,71.387z"/>
	<path style="fill:#EAB932;" d="M137.685,20.251c27.75,0,50.24,22.5,50.24,50.25s-22.49,50.25-50.24,50.25s-50.25-22.5-50.25-50.25   S109.935,20.251,137.685,20.251z"/>
	<path style="fill:#FFD039;" d="M187.925,70.501c0,27.75-22.49,50.25-50.24,50.25c-6.12,0-11.98-1.09-17.4-3.1   c-2.01-5.42-3.1-11.28-3.1-17.4c0-27.75,22.49-50.25,50.25-50.25c6.11,0,11.97,1.09,17.39,3.09   C186.835,58.521,187.925,64.381,187.925,70.501z"/>
	<path style="fill:#3B9DFF;" d="M260.225,106.511c2.79,2.78,4.51,6.62,4.51,10.87c0,8.49-6.89,15.37-15.38,15.37h-88.74   c-4.25,0-8.09-1.72-10.87-4.5c-2.16-2.16-3.68-4.97-4.25-8.11c-0.17-0.89-0.25-1.82-0.25-2.76c0-8.49,6.88-15.38,15.37-15.38   h-22.25c-4.24,0-8.09-1.72-10.87-4.5c-2.79-2.78-4.51-6.63-4.51-10.87c0-8.49,6.89-15.37,15.38-15.37h49.55h3.45   c4.24,0,8.09,1.72,10.87,4.5c2.79,2.78,4.51,6.63,4.51,10.87c0,8.49-6.89,15.37-15.38,15.37h57.99   C253.605,102.001,257.445,103.721,260.225,106.511z"/>
</g>















</svg>
