<svg width="20" height="8" viewBox="0 0 20 8" fill="none" xmlns="http://www.w3.org/2000/svg">
<path d="M1.06108 7H0.230114L2.63352 0.454545H3.4517L5.85511 7H5.02415L3.06818 1.49006H3.01705L1.06108 7ZM1.3679 4.44318H4.71733V5.14631H1.3679V4.44318ZM9.86612 4.9929V2.09091H10.6204V7H9.86612V6.16903H9.81499C9.69993 6.41832 9.52095 6.63033 9.27805 6.80504C9.03516 6.97763 8.72834 7.06392 8.3576 7.06392C8.05078 7.06392 7.77805 6.9968 7.53942 6.86257C7.30078 6.72621 7.11328 6.52166 6.97692 6.24893C6.84055 5.97408 6.77237 5.62784 6.77237 5.21023V2.09091H7.52663V5.15909C7.52663 5.51705 7.62678 5.80256 7.82706 6.01562C8.02947 6.22869 8.28729 6.33523 8.6005 6.33523C8.788 6.33523 8.97869 6.28729 9.17259 6.19141C9.36861 6.09553 9.53267 5.94851 9.66477 5.75036C9.79901 5.5522 9.86612 5.29972 9.86612 4.9929ZM14.1368 2.09091V2.73011H11.5928V2.09091H14.1368ZM12.3343 0.914773H13.0885V5.59375C13.0885 5.80682 13.1194 5.96662 13.1812 6.07315C13.2451 6.17756 13.3261 6.24787 13.4241 6.28409C13.5242 6.31818 13.6297 6.33523 13.7405 6.33523C13.8236 6.33523 13.8918 6.33097 13.945 6.32244C13.9983 6.31179 14.0409 6.30327 14.0729 6.29688L14.2263 6.97443C14.1752 6.99361 14.1038 7.01278 14.0122 7.03196C13.9205 7.05327 13.8044 7.06392 13.6638 7.06392C13.4507 7.06392 13.2419 7.01811 13.0374 6.92649C12.835 6.83487 12.6666 6.69531 12.5324 6.50781C12.4003 6.32031 12.3343 6.08381 12.3343 5.7983V0.914773ZM17.213 7.10227C16.7698 7.10227 16.3809 6.9968 16.0464 6.78587C15.714 6.57493 15.4541 6.27983 15.2666 5.90057C15.0812 5.52131 14.9885 5.07812 14.9885 4.57102C14.9885 4.05966 15.0812 3.61328 15.2666 3.23189C15.4541 2.8505 15.714 2.55433 16.0464 2.34339C16.3809 2.13246 16.7698 2.02699 17.213 2.02699C17.6562 2.02699 18.0439 2.13246 18.3763 2.34339C18.7108 2.55433 18.9708 2.8505 19.1562 3.23189C19.3437 3.61328 19.4374 4.05966 19.4374 4.57102C19.4374 5.07812 19.3437 5.52131 19.1562 5.90057C18.9708 6.27983 18.7108 6.57493 18.3763 6.78587C18.0439 6.9968 17.6562 7.10227 17.213 7.10227ZM17.213 6.42472C17.5496 6.42472 17.8266 6.33842 18.0439 6.16584C18.2613 5.99325 18.4221 5.76634 18.5265 5.48509C18.6309 5.20384 18.6832 4.89915 18.6832 4.57102C18.6832 4.2429 18.6309 3.93714 18.5265 3.65376C18.4221 3.37038 18.2613 3.14134 18.0439 2.96662C17.8266 2.7919 17.5496 2.70455 17.213 2.70455C16.8763 2.70455 16.5993 2.7919 16.382 2.96662C16.1647 3.14134 16.0038 3.37038 15.8994 3.65376C15.795 3.93714 15.7428 4.2429 15.7428 4.57102C15.7428 4.89915 15.795 5.20384 15.8994 5.48509C16.0038 5.76634 16.1647 5.99325 16.382 6.16584C16.5993 6.33842 16.8763 6.42472 17.213 6.42472Z" fill="#F9FAFB"/>
</svg>
