<svg width="15" height="14" viewBox="0 0 15 14" fill="none" xmlns="http://www.w3.org/2000/svg">
<line y1="13.5" x2="15" y2="13.5" stroke="#F9FAFB"/>
<path d="M1.98096 11H0.965332L3.90283 3H4.90283L7.84033 11H6.82471L4.43408 4.26562H4.37158L1.98096 11ZM2.35596 7.875H6.44971V8.73437H2.35596V7.875ZM10.7271 11.1406C10.3468 11.1406 10.0018 11.069 9.69189 10.9258C9.382 10.7799 9.1359 10.5703 8.95361 10.2969C8.77132 10.0208 8.68018 9.6875 8.68018 9.29687C8.68018 8.95312 8.74788 8.67448 8.8833 8.46094C9.01872 8.24479 9.19971 8.07552 9.42627 7.95312C9.65283 7.83073 9.90283 7.73958 10.1763 7.67969C10.4523 7.61719 10.7297 7.56771 11.0083 7.53125C11.3729 7.48437 11.6685 7.44922 11.895 7.42578C12.1242 7.39974 12.2909 7.35677 12.395 7.29687C12.5018 7.23698 12.5552 7.13281 12.5552 6.98437V6.95312C12.5552 6.56771 12.4497 6.26823 12.2388 6.05469C12.0304 5.84115 11.714 5.73437 11.2896 5.73437C10.8494 5.73437 10.5044 5.83073 10.2544 6.02344C10.0044 6.21615 9.82861 6.42187 9.72705 6.64062L8.85205 6.32812C9.0083 5.96354 9.21663 5.67969 9.47705 5.47656C9.74007 5.27083 10.0265 5.1276 10.3364 5.04687C10.6489 4.96354 10.9562 4.92188 11.2583 4.92188C11.451 4.92188 11.6724 4.94531 11.9224 4.99219C12.175 5.03646 12.4185 5.12891 12.6528 5.26953C12.8898 5.41016 13.0864 5.6224 13.2427 5.90625C13.3989 6.1901 13.4771 6.57031 13.4771 7.04688V11H12.5552V10.1875H12.5083C12.4458 10.3177 12.3416 10.457 12.1958 10.6055C12.05 10.7539 11.856 10.8802 11.6138 10.9844C11.3716 11.0885 11.076 11.1406 10.7271 11.1406ZM10.8677 10.3125C11.2323 10.3125 11.5396 10.2409 11.7896 10.0977C12.0422 9.95443 12.2323 9.76953 12.3599 9.54297C12.4901 9.31641 12.5552 9.07812 12.5552 8.82812V7.98437C12.5161 8.03125 12.4302 8.07422 12.2974 8.11328C12.1672 8.14974 12.0161 8.18229 11.8442 8.21094C11.675 8.23698 11.5096 8.26042 11.3481 8.28125C11.1893 8.29948 11.0604 8.3151 10.9614 8.32812C10.7218 8.35937 10.4979 8.41016 10.2896 8.48047C10.0838 8.54818 9.91715 8.65104 9.78955 8.78906C9.66455 8.92448 9.60205 9.10937 9.60205 9.34375C9.60205 9.66406 9.72054 9.90625 9.95752 10.0703C10.1971 10.2318 10.5005 10.3125 10.8677 10.3125Z" fill="#9CA3AF"/>
</svg>
