<svg width="24" height="24" viewBox="0 0 24 24" fill="none" xmlns="http://www.w3.org/2000/svg">
<path d="M2.29244 6.70998C2.19974 6.80249 2.12619 6.91238 2.07601 7.03336C2.02583 7.15433 2 7.28401 2 7.41498C2 7.54595 2.02583 7.67563 2.07601 7.7966C2.12619 7.91758 2.19974 8.02747 2.29244 8.11998L6.17244 12L2.29244 15.88C2.19986 15.9726 2.12642 16.0825 2.07632 16.2034C2.02621 16.3244 2.00042 16.454 2.00042 16.585C2.00042 16.7159 2.02621 16.8456 2.07632 16.9665C2.12642 17.0875 2.19986 17.1974 2.29244 17.29C2.38503 17.3826 2.49494 17.456 2.6159 17.5061C2.73686 17.5562 2.86651 17.582 2.99744 17.582C3.12837 17.582 3.25802 17.5562 3.37899 17.5061C3.49995 17.456 3.60986 17.3826 3.70244 17.29L8.29244 12.7C8.38515 12.6075 8.45869 12.4976 8.50888 12.3766C8.55906 12.2556 8.58489 12.1259 8.58489 11.995C8.58489 11.864 8.55906 11.7343 8.50888 11.6134C8.45869 11.4924 8.38515 11.3825 8.29244 11.29L3.71244 6.70998C3.32244 6.31998 2.68244 6.31998 2.29244 6.70998Z" fill="#D1D5DB"/>
<path d="M9.29244 6.29376C9.19974 6.38628 9.12619 6.49616 9.07601 6.61714C9.02583 6.73811 9 6.86779 9 6.99876C9 7.12973 9.02583 7.25941 9.07601 7.38039C9.12619 7.50136 9.19974 7.61125 9.29244 7.70376L13.1724 11.5838L9.29244 15.4638C9.10547 15.6507 9.00042 15.9043 9.00042 16.1688C9.00042 16.4332 9.10547 16.6868 9.29244 16.8738C9.47942 17.0607 9.73302 17.1658 9.99744 17.1658C10.2619 17.1658 10.5155 17.0607 10.7024 16.8738L15.2924 12.2838C15.3851 12.1912 15.4587 12.0814 15.5089 11.9604C15.5591 11.8394 15.5849 11.7097 15.5849 11.5788C15.5849 11.4478 15.5591 11.3181 15.5089 11.1971C15.4587 11.0762 15.3851 10.9663 15.2924 10.8738L10.7024 6.28376C10.3224 5.90376 9.68244 5.90376 9.29244 6.29376Z" fill="#D1D5DB"/>
<path d="M16.2924 6.29376C16.1997 6.38628 16.1262 6.49616 16.076 6.61714C16.0258 6.73811 16 6.86779 16 6.99876C16 7.12973 16.0258 7.25941 16.076 7.38039C16.1262 7.50136 16.1997 7.61125 16.2924 7.70376L20.1724 11.5838L16.2924 15.4638C16.1055 15.6507 16.0004 15.9043 16.0004 16.1688C16.0004 16.4332 16.1055 16.6868 16.2924 16.8738C16.4794 17.0607 16.733 17.1658 16.9974 17.1658C17.2619 17.1658 17.5155 17.0607 17.7024 16.8738L22.2924 12.2838C22.3851 12.1912 22.4587 12.0814 22.5089 11.9604C22.5591 11.8394 22.5849 11.7097 22.5849 11.5788C22.5849 11.4478 22.5591 11.3181 22.5089 11.1971C22.4587 11.0762 22.3851 10.9663 22.2924 10.8738L17.7024 6.28376C17.3224 5.90376 16.6824 5.90376 16.2924 6.29376Z" fill="#D1D5DB"/>
</svg>
