<svg width="24" height="9" viewBox="0 0 24 9" fill="none" xmlns="http://www.w3.org/2000/svg">
<path d="M1.13672 8H0.121094L3.05859 -2.38419e-07H4.05859L6.99609 8H5.98047L3.58984 1.26562H3.52734L1.13672 8ZM1.51172 4.875H5.60547V5.73437H1.51172V4.875ZM11.8984 5.54687V2H12.8203V8H11.8984V6.98437H11.8359C11.6953 7.28906 11.4766 7.54818 11.1797 7.76172C10.8828 7.97266 10.5078 8.07813 10.0547 8.07813C9.67969 8.07813 9.34635 7.99609 9.05469 7.83203C8.76302 7.66536 8.53385 7.41536 8.36719 7.08203C8.20052 6.74609 8.11719 6.32292 8.11719 5.8125V2H9.03906V5.75C9.03906 6.1875 9.16146 6.53646 9.40625 6.79688C9.65365 7.05729 9.96875 7.1875 10.3516 7.1875C10.5807 7.1875 10.8138 7.12891 11.0508 7.01172C11.2904 6.89453 11.4909 6.71484 11.6523 6.47266C11.8164 6.23047 11.8984 5.92187 11.8984 5.54687ZM17.1182 2V2.78125H14.0088V2H17.1182ZM14.915 0.5625H15.8369V6.28125C15.8369 6.54167 15.8747 6.73698 15.9502 6.86719C16.0283 6.99479 16.1273 7.08073 16.2471 7.125C16.3695 7.16667 16.4984 7.1875 16.6338 7.1875C16.7354 7.1875 16.8187 7.18229 16.8838 7.17187C16.9489 7.15885 17.001 7.14844 17.04 7.14062L17.2275 7.96875C17.165 7.99219 17.0778 8.01563 16.9658 8.03906C16.8538 8.0651 16.7119 8.07813 16.54 8.07813C16.2796 8.07813 16.0244 8.02214 15.7744 7.91016C15.527 7.79818 15.3213 7.6276 15.1572 7.39844C14.9958 7.16927 14.915 6.88021 14.915 6.53125V0.5625ZM20.8779 8.125C20.3363 8.125 19.861 7.99609 19.4521 7.73828C19.0459 7.48047 18.7282 7.11979 18.499 6.65625C18.2725 6.19271 18.1592 5.65104 18.1592 5.03125C18.1592 4.40625 18.2725 3.86068 18.499 3.39453C18.7282 2.92839 19.0459 2.56641 19.4521 2.30859C19.861 2.05078 20.3363 1.92188 20.8779 1.92188C21.4196 1.92188 21.8936 2.05078 22.2998 2.30859C22.7087 2.56641 23.0264 2.92839 23.2529 3.39453C23.4821 3.86068 23.5967 4.40625 23.5967 5.03125C23.5967 5.65104 23.4821 6.19271 23.2529 6.65625C23.0264 7.11979 22.7087 7.48047 22.2998 7.73828C21.8936 7.99609 21.4196 8.125 20.8779 8.125ZM20.8779 7.29688C21.2894 7.29688 21.6279 7.19141 21.8936 6.98047C22.1592 6.76953 22.3558 6.49219 22.4834 6.14844C22.611 5.80469 22.6748 5.43229 22.6748 5.03125C22.6748 4.63021 22.611 4.25651 22.4834 3.91016C22.3558 3.5638 22.1592 3.28385 21.8936 3.07031C21.6279 2.85677 21.2894 2.75 20.8779 2.75C20.4665 2.75 20.1279 2.85677 19.8623 3.07031C19.5967 3.28385 19.4001 3.5638 19.2725 3.91016C19.1449 4.25651 19.0811 4.63021 19.0811 5.03125C19.0811 5.43229 19.1449 5.80469 19.2725 6.14844C19.4001 6.49219 19.5967 6.76953 19.8623 6.98047C20.1279 7.19141 20.4665 7.29688 20.8779 7.29688Z" fill="#E5E7EB"/>
</svg>
