<svg width="56" height="24" viewBox="0 0 56 24" fill="none" xmlns="http://www.w3.org/2000/svg">
<rect width="56" height="24" rx="2" fill="#D1D5DB"/>
<path d="M5.29808 15V7.3H8.69708C9.22508 7.3 9.67241 7.377 10.0391 7.531C10.4057 7.67767 10.6807 7.894 10.8641 8.18C11.0547 8.45867 11.1501 8.796 11.1501 9.192C11.1501 9.632 11.0401 10.0023 10.8201 10.303C10.6074 10.6037 10.2957 10.8053 9.88508 10.908L9.86308 10.699C10.2077 10.7723 10.5047 10.9007 10.7541 11.084C11.0107 11.2673 11.2087 11.4947 11.3481 11.766C11.4874 12.03 11.5571 12.3307 11.5571 12.668C11.5571 13.0567 11.4911 13.3977 11.3591 13.691C11.2271 13.977 11.0364 14.219 10.7871 14.417C10.5377 14.615 10.2444 14.7617 9.90708 14.857C9.57708 14.9523 9.21041 15 8.80708 15H5.29808ZM7.05808 13.438H8.74108C8.94641 13.438 9.11874 13.405 9.25808 13.339C9.40475 13.273 9.51841 13.1777 9.59908 13.053C9.67974 12.921 9.72008 12.7633 9.72008 12.58C9.72008 12.4113 9.67608 12.2683 9.58808 12.151C9.50741 12.0337 9.39008 11.9457 9.23608 11.887C9.08208 11.821 8.89874 11.788 8.68608 11.788H7.05808V13.438ZM7.05808 10.391H8.43308C8.62375 10.391 8.78508 10.3617 8.91708 10.303C9.05641 10.237 9.15908 10.149 9.22508 10.039C9.29841 9.92167 9.33508 9.78233 9.33508 9.621C9.33508 9.38633 9.25441 9.203 9.09308 9.071C8.93174 8.93167 8.68974 8.862 8.36708 8.862H7.05808V10.391ZM16.256 15.066C15.618 15.066 15.0496 14.9377 14.551 14.681C14.0523 14.417 13.66 14.0577 13.374 13.603C13.0953 13.1483 12.956 12.6277 12.956 12.041V7.3H14.848V11.942C14.848 12.2207 14.9103 12.4737 15.035 12.701C15.1596 12.921 15.3283 13.097 15.541 13.229C15.7536 13.3537 15.992 13.416 16.256 13.416C16.5346 13.416 16.7803 13.3537 16.993 13.229C17.213 13.097 17.389 12.921 17.521 12.701C17.653 12.4737 17.719 12.2207 17.719 11.942V7.3H19.545V12.041C19.545 12.6277 19.402 13.1483 19.116 13.603C18.8373 14.0577 18.4486 14.417 17.95 14.681C17.4513 14.9377 16.8866 15.066 16.256 15.066ZM23.0941 15V8.95H20.8061V7.3H27.3071V8.95H24.9641V15H23.0941ZM30.6351 15V8.95H28.3471V7.3H34.8481V8.95H32.5051V15H30.6351ZM39.3471 15.11C38.7605 15.11 38.2251 15.011 37.7411 14.813C37.2571 14.615 36.8355 14.3363 36.4761 13.977C36.1168 13.6177 35.8381 13.196 35.6401 12.712C35.4421 12.228 35.3431 11.6963 35.3431 11.117C35.3431 10.5377 35.4421 10.006 35.6401 9.522C35.8381 9.038 36.1168 8.61633 36.4761 8.257C36.8355 7.89767 37.2571 7.619 37.7411 7.421C38.2251 7.223 38.7568 7.124 39.3361 7.124C39.9155 7.124 40.4471 7.223 40.9311 7.421C41.4151 7.619 41.8368 7.89767 42.1961 8.257C42.5555 8.61633 42.8305 9.038 43.0211 9.522C43.2191 10.006 43.3181 10.5377 43.3181 11.117C43.3181 11.689 43.2191 12.2207 43.0211 12.712C42.8305 13.196 42.5555 13.6177 42.1961 13.977C41.8368 14.3363 41.4151 14.615 40.9311 14.813C40.4471 15.011 39.9191 15.11 39.3471 15.11ZM39.3361 13.35C39.6368 13.35 39.9118 13.295 40.1611 13.185C40.4178 13.075 40.6378 12.921 40.8211 12.723C41.0118 12.5177 41.1585 12.2793 41.2611 12.008C41.3638 11.7367 41.4151 11.4397 41.4151 11.117C41.4151 10.7943 41.3638 10.4973 41.2611 10.226C41.1585 9.95467 41.0118 9.72 40.8211 9.522C40.6378 9.31667 40.4178 9.159 40.1611 9.049C39.9118 8.939 39.6368 8.884 39.3361 8.884C39.0355 8.884 38.7568 8.939 38.5001 9.049C38.2508 9.159 38.0308 9.31667 37.8401 9.522C37.6495 9.72 37.5028 9.95467 37.4001 10.226C37.3048 10.4973 37.2571 10.7943 37.2571 11.117C37.2571 11.4397 37.3048 11.7403 37.4001 12.019C37.5028 12.2903 37.6495 12.525 37.8401 12.723C38.0308 12.921 38.2508 13.075 38.5001 13.185C38.7568 13.295 39.0355 13.35 39.3361 13.35ZM44.7649 15V7.3H46.4369L50.4739 12.8L50.1109 12.745C50.0742 12.503 50.0449 12.272 50.0229 12.052C50.0009 11.832 49.9789 11.6157 49.9569 11.403C49.9422 11.1903 49.9275 10.974 49.9129 10.754C49.9055 10.534 49.8982 10.2957 49.8909 10.039C49.8909 9.78233 49.8909 9.50367 49.8909 9.203V7.3H51.7059V15H50.0119L45.7989 9.324L46.3599 9.401C46.3965 9.753 46.4259 10.0537 46.4479 10.303C46.4772 10.545 46.4992 10.7613 46.5139 10.952C46.5359 11.1427 46.5505 11.315 46.5579 11.469C46.5652 11.623 46.5689 11.777 46.5689 11.931C46.5762 12.0777 46.5799 12.2427 46.5799 12.426V15H44.7649Z" fill="#4B5563"/>
</svg>
