<svg width="56" height="24" viewBox="0 0 56 56" fill="none" xmlns="http://www.w3.org/2000/svg">
<rect y="16" width="56" height="24" rx="2" fill="#D1D5DB"/>
<path d="M5.29808 31V23.3H8.69708C9.22508 23.3 9.67241 23.377 10.0391 23.531C10.4057 23.6777 10.6807 23.894 10.8641 24.18C11.0547 24.4587 11.1501 24.796 11.1501 25.192C11.1501 25.632 11.0401 26.0023 10.8201 26.303C10.6074 26.6037 10.2957 26.8053 9.88508 26.908L9.86308 26.699C10.2077 26.7723 10.5047 26.9007 10.7541 27.084C11.0107 27.2673 11.2087 27.4947 11.3481 27.766C11.4874 28.03 11.5571 28.3307 11.5571 28.668C11.5571 29.0567 11.4911 29.3977 11.3591 29.691C11.2271 29.977 11.0364 30.219 10.7871 30.417C10.5377 30.615 10.2444 30.7617 9.90708 30.857C9.57708 30.9523 9.21041 31 8.80708 31H5.29808ZM7.05808 29.438H8.74108C8.94641 29.438 9.11874 29.405 9.25808 29.339C9.40475 29.273 9.51841 29.1777 9.59908 29.053C9.67974 28.921 9.72008 28.7633 9.72008 28.58C9.72008 28.4113 9.67608 28.2683 9.58808 28.151C9.50741 28.0337 9.39008 27.9457 9.23608 27.887C9.08208 27.821 8.89874 27.788 8.68608 27.788H7.05808V29.438ZM7.05808 26.391H8.43308C8.62375 26.391 8.78508 26.3617 8.91708 26.303C9.05641 26.237 9.15908 26.149 9.22508 26.039C9.29841 25.9217 9.33508 25.7823 9.33508 25.621C9.33508 25.3863 9.25441 25.203 9.09308 25.071C8.93174 24.9317 8.68974 24.862 8.36708 24.862H7.05808V26.391ZM16.256 31.066C15.618 31.066 15.0496 30.9377 14.551 30.681C14.0523 30.417 13.66 30.0577 13.374 29.603C13.0953 29.1483 12.956 28.6277 12.956 28.041V23.3H14.848V27.942C14.848 28.2207 14.9103 28.4737 15.035 28.701C15.1596 28.921 15.3283 29.097 15.541 29.229C15.7536 29.3537 15.992 29.416 16.256 29.416C16.5346 29.416 16.7803 29.3537 16.993 29.229C17.213 29.097 17.389 28.921 17.521 28.701C17.653 28.4737 17.719 28.2207 17.719 27.942V23.3H19.545V28.041C19.545 28.6277 19.402 29.1483 19.116 29.603C18.8373 30.0577 18.4486 30.417 17.95 30.681C17.4513 30.9377 16.8866 31.066 16.256 31.066ZM23.0941 31V24.95H20.8061V23.3H27.3071V24.95H24.9641V31H23.0941ZM30.6351 31V24.95H28.3471V23.3H34.8481V24.95H32.5051V31H30.6351ZM39.3471 31.11C38.7605 31.11 38.2251 31.011 37.7411 30.813C37.2571 30.615 36.8355 30.3363 36.4761 29.977C36.1168 29.6177 35.8381 29.196 35.6401 28.712C35.4421 28.228 35.3431 27.6963 35.3431 27.117C35.3431 26.5377 35.4421 26.006 35.6401 25.522C35.8381 25.038 36.1168 24.6163 36.4761 24.257C36.8355 23.8977 37.2571 23.619 37.7411 23.421C38.2251 23.223 38.7568 23.124 39.3361 23.124C39.9155 23.124 40.4471 23.223 40.9311 23.421C41.4151 23.619 41.8368 23.8977 42.1961 24.257C42.5555 24.6163 42.8305 25.038 43.0211 25.522C43.2191 26.006 43.3181 26.5377 43.3181 27.117C43.3181 27.689 43.2191 28.2207 43.0211 28.712C42.8305 29.196 42.5555 29.6177 42.1961 29.977C41.8368 30.3363 41.4151 30.615 40.9311 30.813C40.4471 31.011 39.9191 31.11 39.3471 31.11ZM39.3361 29.35C39.6368 29.35 39.9118 29.295 40.1611 29.185C40.4178 29.075 40.6378 28.921 40.8211 28.723C41.0118 28.5177 41.1585 28.2793 41.2611 28.008C41.3638 27.7367 41.4151 27.4397 41.4151 27.117C41.4151 26.7943 41.3638 26.4973 41.2611 26.226C41.1585 25.9547 41.0118 25.72 40.8211 25.522C40.6378 25.3167 40.4178 25.159 40.1611 25.049C39.9118 24.939 39.6368 24.884 39.3361 24.884C39.0355 24.884 38.7568 24.939 38.5001 25.049C38.2508 25.159 38.0308 25.3167 37.8401 25.522C37.6495 25.72 37.5028 25.9547 37.4001 26.226C37.3048 26.4973 37.2571 26.7943 37.2571 27.117C37.2571 27.4397 37.3048 27.7403 37.4001 28.019C37.5028 28.2903 37.6495 28.525 37.8401 28.723C38.0308 28.921 38.2508 29.075 38.5001 29.185C38.7568 29.295 39.0355 29.35 39.3361 29.35ZM44.7649 31V23.3H46.4369L50.4739 28.8L50.1109 28.745C50.0742 28.503 50.0449 28.272 50.0229 28.052C50.0009 27.832 49.9789 27.6157 49.9569 27.403C49.9422 27.1903 49.9275 26.974 49.9129 26.754C49.9055 26.534 49.8982 26.2957 49.8909 26.039C49.8909 25.7823 49.8909 25.5037 49.8909 25.203V23.3H51.7059V31H50.0119L45.7989 25.324L46.3599 25.401C46.3965 25.753 46.4259 26.0537 46.4479 26.303C46.4772 26.545 46.4992 26.7613 46.5139 26.952C46.5359 27.1427 46.5505 27.315 46.5579 27.469C46.5652 27.623 46.5689 27.777 46.5689 27.931C46.5762 28.0777 46.5799 28.2427 46.5799 28.426V31H44.7649Z" fill="#4B5563"/>
</svg>
