<svg width="56" height="24" viewBox="0 0 56 24" fill="none" xmlns="http://www.w3.org/2000/svg">
<path d="M5.52644 10L5.16344 9.098L7.40744 6.645C7.53211 6.50567 7.66777 6.348 7.81444 6.172C7.96111 5.996 8.10411 5.81633 8.24344 5.633C8.38277 5.44233 8.49277 5.259 8.57344 5.083C8.66144 4.907 8.70544 4.74567 8.70544 4.599C8.70544 4.45233 8.67244 4.324 8.60644 4.214C8.54044 4.104 8.44511 4.01967 8.32044 3.961C8.19577 3.895 8.03811 3.862 7.84744 3.862C7.67877 3.862 7.51744 3.906 7.36344 3.994C7.20944 4.07467 7.06277 4.203 6.92344 4.379C6.79144 4.555 6.66677 4.77133 6.54944 5.028L5.16344 4.28C5.31744 3.85467 5.53377 3.48067 5.81244 3.158C6.09844 2.828 6.43211 2.575 6.81344 2.399C7.19477 2.21567 7.60177 2.124 8.03444 2.124C8.48911 2.13133 8.89977 2.23033 9.26644 2.421C9.63311 2.60433 9.92278 2.86467 10.1354 3.202C10.3554 3.532 10.4654 3.92067 10.4654 4.368C10.4654 4.522 10.4471 4.68333 10.4104 4.852C10.3738 5.02067 10.3188 5.19667 10.2454 5.38C10.1721 5.556 10.0731 5.74667 9.94844 5.952C9.83111 6.15 9.68811 6.359 9.51944 6.579C9.35077 6.799 9.15277 7.03367 8.92544 7.283L7.17644 9.186L6.95644 8.35H10.8064V10H5.52644ZM15.8352 10.121C15.5346 10.121 15.2999 10.0367 15.1312 9.868C14.9699 9.69933 14.8892 9.45733 14.8892 9.142C14.8892 8.84867 14.9772 8.61033 15.1532 8.427C15.3292 8.24367 15.5566 8.152 15.8352 8.152C16.1359 8.152 16.3706 8.24 16.5392 8.416C16.7079 8.58467 16.7922 8.82667 16.7922 9.142C16.7922 9.428 16.7042 9.66267 16.5282 9.846C16.3522 10.0293 16.1212 10.121 15.8352 10.121ZM15.8352 6.018C15.5346 6.018 15.2999 5.93367 15.1312 5.765C14.9699 5.59633 14.8892 5.35433 14.8892 5.039C14.8892 4.74567 14.9772 4.50733 15.1532 4.324C15.3292 4.14067 15.5566 4.049 15.8352 4.049C16.1359 4.049 16.3706 4.137 16.5392 4.313C16.7079 4.48167 16.7922 4.72367 16.7922 5.039C16.7922 5.325 16.7042 5.55967 16.5282 5.743C16.3522 5.92633 16.1212 6.018 15.8352 6.018ZM23.8779 10.077C23.2985 10.077 22.7705 9.95967 22.2939 9.725C21.8245 9.49033 21.4359 9.153 21.1279 8.713L22.1289 7.613C22.4295 7.943 22.7082 8.17033 22.9649 8.295C23.2215 8.41233 23.5075 8.471 23.8229 8.471C24.0575 8.471 24.2665 8.42333 24.4499 8.328C24.6332 8.23267 24.7762 8.10067 24.8789 7.932C24.9889 7.756 25.0439 7.56167 25.0439 7.349C25.0439 7.129 24.9889 6.93467 24.8789 6.766C24.7762 6.59 24.6332 6.45067 24.4499 6.348C24.2739 6.24533 24.0685 6.194 23.8339 6.194C23.6652 6.194 23.5075 6.20867 23.3609 6.238C23.2142 6.26733 23.0565 6.31867 22.8879 6.392C22.7265 6.458 22.5322 6.557 22.3049 6.689L21.5129 5.633L21.9859 2.234H26.4079V3.807H22.8769L23.3609 3.191L22.9979 5.633L22.3379 5.413C22.4772 5.28833 22.6459 5.17833 22.8439 5.083C23.0492 4.98767 23.2692 4.91067 23.5039 4.852C23.7385 4.786 23.9732 4.753 24.2079 4.753C24.6919 4.753 25.1245 4.86667 25.5059 5.094C25.8945 5.314 26.2025 5.622 26.4299 6.018C26.6572 6.414 26.7709 6.86867 26.7709 7.382C26.7709 7.888 26.6425 8.34633 26.3859 8.757C26.1292 9.16033 25.7845 9.483 25.3519 9.725C24.9192 9.95967 24.4279 10.077 23.8779 10.077ZM32.2601 10.121C31.9594 10.121 31.7247 10.0367 31.5561 9.868C31.3947 9.69933 31.3141 9.45733 31.3141 9.142C31.3141 8.84867 31.4021 8.61033 31.5781 8.427C31.7541 8.24367 31.9814 8.152 32.2601 8.152C32.5607 8.152 32.7954 8.24 32.9641 8.416C33.1327 8.58467 33.2171 8.82667 33.2171 9.142C33.2171 9.428 33.1291 9.66267 32.9531 9.846C32.7771 10.0293 32.5461 10.121 32.2601 10.121ZM32.2601 6.018C31.9594 6.018 31.7247 5.93367 31.5561 5.765C31.3947 5.59633 31.3141 5.35433 31.3141 5.039C31.3141 4.74567 31.4021 4.50733 31.5781 4.324C31.7541 4.14067 31.9814 4.049 32.2601 4.049C32.5607 4.049 32.7954 4.137 32.9641 4.313C33.1327 4.48167 33.2171 4.72367 33.2171 5.039C33.2171 5.325 33.1291 5.55967 32.9531 5.743C32.7771 5.92633 32.5461 6.018 32.2601 6.018ZM40.3577 10.11C39.7344 10.11 39.188 9.98167 38.7187 9.725C38.2567 9.461 37.835 9.01 37.4537 8.372L38.7957 7.503C38.957 7.75967 39.122 7.965 39.2907 8.119C39.4667 8.273 39.6464 8.38667 39.8297 8.46C40.0204 8.526 40.2184 8.559 40.4237 8.559C40.629 8.559 40.816 8.515 40.9847 8.427C41.1607 8.33167 41.3 8.19967 41.4027 8.031C41.5127 7.86233 41.5677 7.67167 41.5677 7.459C41.5677 7.23167 41.52 7.041 41.4247 6.887C41.3367 6.72567 41.2047 6.60467 41.0287 6.524C40.86 6.44333 40.6547 6.403 40.4127 6.403C40.3027 6.403 40.1854 6.41767 40.0607 6.447C39.936 6.469 39.804 6.502 39.6647 6.546C39.5254 6.59 39.3824 6.64867 39.2357 6.722L38.8287 5.633L40.6987 3.598L41.2047 3.873L37.9927 3.807V2.234H42.7227L43.0637 2.916L40.5227 5.644L40.0827 5.127C40.1414 5.09767 40.2367 5.072 40.3687 5.05C40.508 5.02067 40.64 5.006 40.7647 5.006C41.1094 5.006 41.432 5.06833 41.7327 5.193C42.0334 5.31767 42.301 5.49 42.5357 5.71C42.7704 5.93 42.9537 6.19033 43.0857 6.491C43.2177 6.78433 43.2837 7.09967 43.2837 7.437C43.2837 7.95033 43.1517 8.40867 42.8877 8.812C42.631 9.208 42.279 9.52333 41.8317 9.758C41.3917 9.99267 40.9004 10.11 40.3577 10.11ZM47.4067 10.11C46.7174 10.11 46.127 9.95233 45.6357 9.637C45.1517 9.32167 44.7814 8.87067 44.5247 8.284C44.268 7.69 44.1397 6.97867 44.1397 6.15C44.1397 5.32133 44.268 4.61367 44.5247 4.027C44.7814 3.433 45.1517 2.97833 45.6357 2.663C46.127 2.34767 46.7174 2.19 47.4067 2.19C48.096 2.19 48.6864 2.34767 49.1777 2.663C49.669 2.97833 50.043 3.433 50.2997 4.027C50.5564 4.61367 50.6847 5.32133 50.6847 6.15C50.6847 6.97867 50.5564 7.69 50.2997 8.284C50.043 8.87067 49.669 9.32167 49.1777 9.637C48.6864 9.95233 48.096 10.11 47.4067 10.11ZM47.4067 8.526C47.8834 8.526 48.25 8.32067 48.5067 7.91C48.7707 7.49933 48.9027 6.91267 48.9027 6.15C48.9027 5.36533 48.7707 4.764 48.5067 4.346C48.25 3.92067 47.8834 3.708 47.4067 3.708C46.93 3.708 46.5597 3.92067 46.2957 4.346C46.039 4.764 45.9107 5.36533 45.9107 6.15C45.9107 6.91267 46.039 7.49933 46.2957 7.91C46.5597 8.32067 46.93 8.526 47.4067 8.526Z" fill="#E5E7EB"/>
<path d="M5.78979 22V13.86H7.51679V17.347L7.16479 17.479C7.24546 17.215 7.38846 16.9767 7.59379 16.764C7.80646 16.544 8.05946 16.368 8.35279 16.236C8.64612 16.104 8.95412 16.038 9.27679 16.038C9.71679 16.038 10.0871 16.1297 10.3878 16.313C10.6885 16.489 10.9158 16.7567 11.0698 17.116C11.2238 17.468 11.3008 17.9007 11.3008 18.414V22H9.52979V18.557C9.52979 18.3223 9.49679 18.128 9.43079 17.974C9.36479 17.82 9.26212 17.7063 9.12279 17.633C8.99079 17.5523 8.82579 17.5157 8.62779 17.523C8.47379 17.523 8.33079 17.5487 8.19879 17.6C8.06679 17.644 7.95312 17.7137 7.85779 17.809C7.76246 17.897 7.68546 17.9997 7.62679 18.117C7.57546 18.2343 7.54979 18.3627 7.54979 18.502V22H6.68079C6.47546 22 6.29946 22 6.15279 22C6.00612 22 5.88512 22 5.78979 22Z" fill="#9CA3AF"/>
<path d="M20.9795 22V16.159H22.6515L22.7065 17.215L22.4755 17.226C22.5635 17.0353 22.6735 16.8667 22.8055 16.72C22.9448 16.5733 23.0988 16.4523 23.2675 16.357C23.4435 16.2543 23.6231 16.1773 23.8065 16.126C23.9971 16.0747 24.1878 16.049 24.3785 16.049C24.6645 16.049 24.9248 16.093 25.1595 16.181C25.3941 16.269 25.5995 16.412 25.7755 16.61C25.9515 16.8007 26.0908 17.061 26.1935 17.391L25.9185 17.369L26.0065 17.193C26.1018 17.017 26.2228 16.8593 26.3695 16.72C26.5235 16.5733 26.6921 16.4523 26.8755 16.357C27.0588 16.2543 27.2495 16.1773 27.4475 16.126C27.6455 16.0747 27.8361 16.049 28.0195 16.049C28.4815 16.049 28.8665 16.1407 29.1745 16.324C29.4825 16.5 29.7135 16.7677 29.8675 17.127C30.0288 17.4863 30.1095 17.9227 30.1095 18.436V22H28.3385V18.579C28.3385 18.3443 28.3055 18.15 28.2395 17.996C28.1735 17.842 28.0745 17.7283 27.9425 17.655C27.8178 17.5743 27.6601 17.534 27.4695 17.534C27.3155 17.534 27.1725 17.5597 27.0405 17.611C26.9158 17.6623 26.8058 17.732 26.7105 17.82C26.6225 17.908 26.5528 18.0107 26.5015 18.128C26.4501 18.2453 26.4245 18.3773 26.4245 18.524V22H24.6535V18.568C24.6535 18.348 24.6205 18.161 24.5545 18.007C24.4885 17.853 24.3895 17.7357 24.2575 17.655C24.1255 17.5743 23.9715 17.534 23.7955 17.534C23.6415 17.534 23.4985 17.5597 23.3665 17.611C23.2418 17.6623 23.1318 17.732 23.0365 17.82C22.9485 17.908 22.8788 18.0107 22.8275 18.128C22.7761 18.2453 22.7505 18.3737 22.7505 18.513V22H20.9795Z" fill="#9CA3AF"/>
<path d="M42.5269 22.11C41.9549 22.11 41.4489 22.0183 41.0089 21.835C40.5762 21.6517 40.2315 21.406 39.9749 21.098L41.0419 20.174C41.2692 20.4013 41.5259 20.57 41.8119 20.68C42.0979 20.7827 42.3692 20.834 42.6259 20.834C42.7285 20.834 42.8202 20.823 42.9009 20.801C42.9815 20.779 43.0475 20.7497 43.0989 20.713C43.1575 20.669 43.2015 20.6213 43.2309 20.57C43.2602 20.5113 43.2749 20.4453 43.2749 20.372C43.2749 20.2253 43.2089 20.1117 43.0769 20.031C43.0109 19.9943 42.9009 19.9503 42.7469 19.899C42.5929 19.8477 42.3949 19.789 42.1529 19.723C41.8082 19.635 41.5075 19.5323 41.2509 19.415C41.0015 19.2903 40.7962 19.1473 40.6349 18.986C40.4882 18.832 40.3745 18.6633 40.2939 18.48C40.2132 18.2893 40.1729 18.0767 40.1729 17.842C40.1729 17.5707 40.2352 17.325 40.3599 17.105C40.4919 16.885 40.6642 16.6943 40.8769 16.533C41.0969 16.3717 41.3462 16.2507 41.6249 16.17C41.9109 16.082 42.2042 16.038 42.5049 16.038C42.8275 16.038 43.1355 16.0747 43.4289 16.148C43.7222 16.2213 43.9935 16.324 44.2429 16.456C44.4995 16.588 44.7269 16.7457 44.9249 16.929L44.0009 17.963C43.8689 17.8383 43.7185 17.7283 43.5499 17.633C43.3885 17.5303 43.2199 17.4497 43.0439 17.391C42.8679 17.3323 42.7065 17.303 42.5599 17.303C42.4499 17.303 42.3509 17.314 42.2629 17.336C42.1822 17.3507 42.1125 17.38 42.0539 17.424C41.9952 17.4607 41.9512 17.5083 41.9219 17.567C41.8925 17.6183 41.8779 17.6807 41.8779 17.754C41.8779 17.8273 41.8962 17.897 41.9329 17.963C41.9769 18.029 42.0355 18.084 42.1089 18.128C42.1822 18.172 42.2995 18.2233 42.4609 18.282C42.6222 18.3333 42.8422 18.3993 43.1209 18.48C43.4655 18.5753 43.7625 18.6817 44.0119 18.799C44.2612 18.9163 44.4592 19.0557 44.6059 19.217C44.7232 19.3417 44.8112 19.4883 44.8699 19.657C44.9285 19.8183 44.9579 19.9943 44.9579 20.185C44.9579 20.559 44.8515 20.8927 44.6389 21.186C44.4335 21.472 44.1475 21.6993 43.7809 21.868C43.4142 22.0293 42.9962 22.11 42.5269 22.11Z" fill="#9CA3AF"/>
</svg>
