<svg width="24" height="24" viewBox="0 0 24 24" fill="none" xmlns="http://www.w3.org/2000/svg">
<path d="M4.35 16.95V9.15L2.8 10.25L2 9.1L4.8 7.05H5.9V16.95H4.35ZM11.1 17C9.75 17 8.75433 16.4667 8.113 15.4C7.471 14.3333 7.15 13.2 7.15 12C7.15 10.8 7.471 9.66667 8.113 8.6C8.75433 7.53333 9.75 7 11.1 7C12.45 7 13.4373 7.53333 14.062 8.6C14.6873 9.66667 15 10.8 15 12C15 13.1833 14.6873 14.3123 14.062 15.387C13.4373 16.4623 12.45 17 11.1 17ZM11.1 15.55C12 15.55 12.6167 15.1417 12.95 14.325C13.2833 13.5083 13.45 12.7333 13.45 12C13.45 11.2667 13.2917 10.4917 12.975 9.675C12.6583 8.85833 12.0333 8.45 11.1 8.45C10.1667 8.45 9.54167 8.854 9.225 9.662C8.90833 10.4707 8.75 11.25 8.75 12C8.75 12.7333 8.91667 13.5083 9.25 14.325C9.58333 15.1417 10.2 15.55 11.1 15.55ZM19 17C18.35 17 17.7333 16.854 17.15 16.562C16.5667 16.2707 16.15 15.7833 15.9 15.1L17.25 14.5C17.4333 14.8833 17.671 15.171 17.963 15.363C18.2543 15.5543 18.6 15.65 19 15.65C19.25 15.65 19.5377 15.5917 19.863 15.475C20.1877 15.3583 20.35 15.1333 20.35 14.8C20.35 14.5167 20.2127 14.2917 19.938 14.125C19.6627 13.9583 19.3 13.8333 18.85 13.75C18.2167 13.6167 17.6083 13.3957 17.025 13.087C16.4417 12.779 16.15 12.25 16.15 11.5C16.15 10.7667 16.446 10.2417 17.038 9.925C17.6293 9.60833 18.25 9.45 18.9 9.45C19.4833 9.45 20.0373 9.56233 20.562 9.787C21.0873 10.0123 21.4667 10.4167 21.7 11L20.4 11.55C20.25 11.2667 20.05 11.0627 19.8 10.938C19.55 10.8127 19.25 10.75 18.9 10.75C18.6667 10.75 18.4083 10.8 18.125 10.9C17.8417 11 17.7 11.2 17.7 11.5C17.7 11.7833 17.8167 11.9957 18.05 12.137C18.2833 12.279 18.6667 12.4 19.2 12.5C19.8333 12.6333 20.4417 12.8457 21.025 13.137C21.6083 13.429 21.9 13.9667 21.9 14.75C21.9 15.55 21.5917 16.125 20.975 16.475C20.3583 16.825 19.7 17 19 17Z" fill="#D1D5DB"/>
</svg>
