<svg width="30" height="24" viewBox="0 0 30 24" fill="none" xmlns="http://www.w3.org/2000/svg">
<path fill-rule="evenodd" clip-rule="evenodd" d="M0.810811 0.827645H29.1892V9.10156H0.810811V0.827645ZM0 9.10156V0H30V9.10156V9.93174V23.9992H0V9.93174V9.10156ZM0.810811 9.93174V23.1715H29.1892V9.93174H0.810811ZM2.95644 2.19152C3.11476 2.02991 3.37144 2.02991 3.52977 2.19152L5.9622 4.67445C6.12052 4.83606 6.12052 5.09808 5.9622 5.25969L3.52977 7.74262C3.37144 7.90423 3.11476 7.90423 2.95644 7.74262C2.79812 7.58102 2.79812 7.319 2.95644 7.15739L5.1022 4.96707L2.95644 2.77675C2.79812 2.61514 2.79812 2.35313 2.95644 2.19152ZM7.58423 13.5346C7.74255 13.373 7.74255 13.1109 7.58423 12.9493C7.42591 12.7877 7.16922 12.7877 7.0109 12.9493L4.86513 15.1397L2.71937 12.9493C2.56105 12.7877 2.30436 12.7877 2.14604 12.9493C1.98772 13.1109 1.98772 13.373 2.14604 13.5346L4.57847 16.0175C4.73679 16.1791 4.99348 16.1791 5.1518 16.0175L7.58423 13.5346Z" fill="#D1D5DB"/>
</svg>
