<svg width="58" height="26" viewBox="0 0 58 26" fill="none" xmlns="http://www.w3.org/2000/svg">
<rect x="0.75" y="0.75" width="56.5" height="24.5" stroke="#D1D5DB" stroke-width="0.5"/>
<path d="M20.9 13C20.9 11.29 22.29 9.9 24 9.9H28V8H24C21.24 8 19 10.24 19 13C19 15.76 21.24 18 24 18H28V16.1H24C22.29 16.1 20.9 14.71 20.9 13ZM25 14H33V12H25V14ZM34 8H30V9.9H34C35.71 9.9 37.1 11.29 37.1 13C37.1 14.71 35.71 16.1 34 16.1H30V18H34C36.76 18 39 15.76 39 13C39 10.24 36.76 8 34 8Z" fill="#D1D5DB"/>
</svg>
