<svg width="23" height="23" viewBox="0 0 23 23" fill="none" xmlns="http://www.w3.org/2000/svg">
<path d="M21.3571 4.92857H18.0714V1.64286C18.071 1.20728 17.8978 0.789663 17.5898 0.481662C17.2818 0.173661 16.8642 0.000434927 16.4286 0H1.64286C1.20728 0.000434927 0.789663 0.173661 0.481662 0.481662C0.173661 0.789663 0.000434927 1.20728 0 1.64286V16.4286C0.000434927 16.8642 0.173661 17.2818 0.481662 17.5898C0.789663 17.8978 1.20728 18.071 1.64286 18.0714H4.92857V21.3571C4.92901 21.7927 5.10223 22.2103 5.41023 22.5183C5.71824 22.8263 6.13585 22.9996 6.57143 23H21.3571C21.7927 22.9996 22.2103 22.8263 22.5183 22.5183C22.8263 22.2103 22.9996 21.7927 23 21.3571V6.57143C22.9996 6.13585 22.8263 5.71824 22.5183 5.41023C22.2103 5.10223 21.7927 4.92901 21.3571 4.92857ZM1.64286 16.4286V1.64286H16.4286V4.92857H6.57143C6.13585 4.92901 5.71824 5.10223 5.41023 5.41023C5.10223 5.71824 4.92901 6.13585 4.92857 6.57143V16.4286H1.64286ZM16.4286 16.4286H14.3044L6.57143 8.69564V6.57143H8.69564L16.4286 14.306V16.4286ZM6.57143 11.0186L11.9814 16.4286H6.57143V11.0186ZM16.4294 11.9822L11.0186 6.57143H16.4286L16.4294 11.9822ZM6.57143 21.3571V18.0714H16.4286C16.8642 18.071 17.2818 17.8978 17.5898 17.5898C17.8978 17.2818 18.071 16.8642 18.0714 16.4286V6.57143H21.3571V21.3571H6.57143Z" fill="#D1D5DB"/>
</svg>
