<svg width="23" height="23" viewBox="0 0 23 23" fill="none" xmlns="http://www.w3.org/2000/svg">
<path fill-rule="evenodd" clip-rule="evenodd" d="M10.7966 0.105573C11.0781 -0.0351909 11.4095 -0.0351909 11.691 0.105573L21.9346 5.22736C22.2734 5.39675 22.4874 5.74301 22.4874 6.12179C22.4874 6.50056 22.2734 6.84682 21.9346 7.01621L11.691 12.138C11.4095 12.2788 11.0781 12.2788 10.7966 12.138L0.553006 7.01621C0.214221 6.84682 0.00021906 6.50056 0.00021906 6.12179C0.00021906 5.74301 0.214221 5.39675 0.553006 5.22736L10.7966 0.105573ZM3.23629 6.12179L11.2438 10.1255L19.2513 6.12179L11.2438 2.11803L3.23629 6.12179ZM0.105792 15.9181C0.352781 15.4242 0.953454 15.2239 1.44743 15.4709L11.2438 20.3691L21.0402 15.4709C21.5341 15.2239 22.1348 15.4242 22.3818 15.9181C22.6288 16.4121 22.4286 17.0128 21.9346 17.2598L11.691 22.3816C11.4095 22.5223 11.0781 22.5223 10.7966 22.3816L0.553005 17.2598C0.0590269 17.0128 -0.141197 16.4121 0.105792 15.9181ZM1.44743 10.3491C0.953454 10.1022 0.352781 10.3024 0.105792 10.7964C-0.141197 11.2903 0.059027 11.891 0.553005 12.138L10.7966 17.2598C11.0781 17.4006 11.4095 17.4006 11.691 17.2598L21.9346 12.138C22.4286 11.891 22.6288 11.2903 22.3818 10.7964C22.1348 10.3024 21.5341 10.1022 21.0402 10.3491L11.2438 15.2473L1.44743 10.3491Z" fill="#FFFFFF"/>
</svg>
