<svg width="24" height="24" viewBox="0 0 24 24" fill="none" xmlns="http://www.w3.org/2000/svg">
<rect x="5" y="9" width="4" height="10" fill="#D1D5DB"/>
<rect x="19" y="1" width="4" height="18" fill="#D1D5DB"/>
<rect x="12" y="6" width="4" height="13" fill="#D1D5DB"/>
<path fill-rule="evenodd" clip-rule="evenodd" d="M2.3335 0C1.78121 0 1.3335 0.447716 1.3335 1V21H1C0.447715 21 0 21.4477 0 22C0 22.5523 0.447716 23 1 23H1.3335C1.3335 23.5523 1.78121 24 2.3335 24C2.88578 24 3.3335 23.5523 3.3335 23H23C23.5523 23 24 22.5523 24 22C24 21.4477 23.5523 21 23 21H3.3335V1C3.3335 0.447715 2.88578 0 2.3335 0Z" fill="#6B7280"/>
</svg>
