<svg width="23" height="23" viewBox="0 0 23 23" fill="none" xmlns="http://www.w3.org/2000/svg">
<g clip-path="url(#clip0_5_78)">
<path d="M13.4167 7.66666H4.47226C4.30282 7.66666 4.14032 7.59935 4.0205 7.47954C3.90069 7.35972 3.83337 7.19722 3.83337 7.02777V4.47222C3.83337 4.30277 3.90069 4.14027 4.0205 4.02045C4.14032 3.90064 4.30282 3.83333 4.47226 3.83333H13.4167C13.5862 3.83333 13.7487 3.90064 13.8685 4.02045C13.9883 4.14027 14.0556 4.30277 14.0556 4.47222V7.02777C14.0556 7.19722 13.9883 7.35972 13.8685 7.47954C13.7487 7.59935 13.5862 7.66666 13.4167 7.66666ZM5.11115 6.38888H12.7778V5.07277H5.11115V6.38888Z" fill="#D1D5DB"/>
<path d="M13.4167 8.99556H4.47226C4.30282 8.99556 4.14032 9.06287 4.0205 9.18269C3.90069 9.3025 3.83337 9.465 3.83337 9.63445V12.1389C3.83337 12.3083 3.90069 12.4708 4.0205 12.5907C4.14032 12.7105 4.30282 12.7778 4.47226 12.7778H11.73L14.0556 10.4139V9.63445C14.0556 9.465 13.9883 9.3025 13.8685 9.18269C13.7487 9.06287 13.5862 8.99556 13.4167 8.99556ZM12.7778 11.5H5.11115V10.2222H12.7778V11.5Z" fill="#D1D5DB"/>
<path d="M7.06617 20.1314V20.0931L7.27061 19.205H2.55561V2.55555H15.3334V9.10416L16.6112 7.89666V1.91666C16.6112 1.74722 16.5439 1.58471 16.424 1.4649C16.3042 1.34508 16.1417 1.27777 15.9723 1.27777H1.91672C1.74728 1.27777 1.58477 1.34508 1.46496 1.4649C1.34514 1.58471 1.27783 1.74722 1.27783 1.91666V19.8055C1.27783 19.975 1.34514 20.1375 1.46496 20.2573C1.58477 20.3771 1.74728 20.4444 1.91672 20.4444H7.02783C7.0331 20.3393 7.04591 20.2347 7.06617 20.1314Z" fill="#D1D5DB"/>
<path d="M14.0556 12.2475L13.5573 12.7522C13.6809 12.7267 13.7942 12.6652 13.8829 12.5754C13.9716 12.4855 14.0317 12.3714 14.0556 12.2475Z" fill="#D1D5DB"/>
<path d="M3.83337 17.2117C3.83337 17.3811 3.90069 17.5436 4.0205 17.6634C4.14032 17.7832 4.30282 17.8506 4.47226 17.8506H7.56449L7.75615 17.02L7.83921 16.6686V16.6367H5.11115V15.3333H9.16171L10.4395 14.0556H4.47226C4.30282 14.0556 4.14032 14.1229 4.0205 14.2427C3.90069 14.3625 3.83337 14.525 3.83337 14.6944V17.2117Z" fill="#D1D5DB"/>
<path d="M21.3964 10.6503L19.2433 8.49722C19.1477 8.4014 19.0342 8.32538 18.9093 8.27351C18.7843 8.22165 18.6503 8.19495 18.515 8.19495C18.3797 8.19495 18.2457 8.22165 18.1207 8.27351C17.9957 8.32538 17.8822 8.4014 17.7866 8.49722L9.02747 17.3075L8.30552 20.3805C8.27849 20.5131 8.27789 20.6497 8.30374 20.7825C8.32958 20.9154 8.38138 21.0418 8.45616 21.1545C8.53094 21.2673 8.62723 21.3642 8.73951 21.4397C8.8518 21.5152 8.97788 21.5678 9.11052 21.5944C9.17638 21.6011 9.24273 21.6011 9.30858 21.5944C9.38686 21.6072 9.46669 21.6072 9.54497 21.5944L12.6436 20.9108L21.3964 12.1389C21.492 12.0439 21.5679 11.9309 21.6196 11.8064C21.6714 11.682 21.6981 11.5485 21.6981 11.4137C21.6981 11.279 21.6714 11.1455 21.6196 11.021C21.5679 10.8966 21.492 10.7836 21.3964 10.6886V10.6503ZM11.9919 19.748L9.65358 20.2655L10.2222 17.9464L16.79 11.3083L18.5916 13.11L11.9919 19.748ZM19.3136 12.388L17.5119 10.5864L18.5277 9.58333L20.3422 11.3978L19.3136 12.388Z" fill="#D1D5DB"/>
</g>
<defs>
<clipPath id="clip0_5_78">
<rect width="23" height="23" fill="white"/>
</clipPath>
</defs>
</svg>
