<svg width="21" height="21" viewBox="0 0 21 21" fill="none" xmlns="http://www.w3.org/2000/svg">
<rect width="21" height="21" rx="2" fill="#D1D5DB"/>
<path d="M3.94469 13V12.32H5.25669V8.096H3.94469V7.416H7.46469V8.096H6.15269V12.32H7.46469V13H3.94469ZM10.6616 13.096C9.95223 13.096 9.42423 12.8453 9.07756 12.344C8.73623 11.8427 8.56556 11.1307 8.56556 10.208C8.56556 9.28533 8.73623 8.57333 9.07756 8.072C9.42423 7.57067 9.95223 7.32 10.6616 7.32C10.9336 7.32 11.1682 7.35733 11.3656 7.432C11.5682 7.50133 11.7416 7.6 11.8856 7.728C12.0296 7.85067 12.1496 7.99733 12.2456 8.168C12.3469 8.33333 12.4296 8.512 12.4936 8.704L11.6856 8.976C11.6429 8.848 11.5949 8.728 11.5416 8.616C11.4882 8.504 11.4216 8.408 11.3416 8.328C11.2616 8.248 11.1656 8.184 11.0536 8.136C10.9469 8.088 10.8136 8.064 10.6536 8.064C10.2589 8.064 9.9709 8.216 9.78956 8.52C9.60823 8.81867 9.51756 9.224 9.51756 9.736V10.68C9.51756 11.192 9.60823 11.6 9.78956 11.904C9.9709 12.2027 10.2589 12.352 10.6536 12.352C10.8136 12.352 10.9469 12.328 11.0536 12.28C11.1656 12.232 11.2616 12.168 11.3416 12.088C11.4216 12.008 11.4882 11.912 11.5416 11.8C11.5949 11.688 11.6429 11.568 11.6856 11.44L12.4936 11.712C12.4296 11.904 12.3469 12.0853 12.2456 12.256C12.1496 12.4213 12.0296 12.568 11.8856 12.696C11.7416 12.8187 11.5682 12.9173 11.3656 12.992C11.1682 13.0613 10.9336 13.096 10.6616 13.096ZM15.2984 13.096C14.9464 13.096 14.6398 13.032 14.3784 12.904C14.1224 12.7707 13.9091 12.5813 13.7384 12.336C13.5731 12.0907 13.4504 11.7893 13.3704 11.432C13.2904 11.0747 13.2504 10.6667 13.2504 10.208C13.2504 9.75467 13.2904 9.34933 13.3704 8.992C13.4504 8.62933 13.5731 8.32533 13.7384 8.08C13.9091 7.83467 14.1224 7.648 14.3784 7.52C14.6398 7.38667 14.9464 7.32 15.2984 7.32C15.6504 7.32 15.9544 7.38667 16.2104 7.52C16.4718 7.648 16.6851 7.83467 16.8504 8.08C17.0211 8.32533 17.1464 8.62933 17.2264 8.992C17.3064 9.34933 17.3464 9.75467 17.3464 10.208C17.3464 10.6667 17.3064 11.0747 17.2264 11.432C17.1464 11.7893 17.0211 12.0907 16.8504 12.336C16.6851 12.5813 16.4718 12.7707 16.2104 12.904C15.9544 13.032 15.6504 13.096 15.2984 13.096ZM15.2984 12.352C15.6984 12.352 15.9811 12.2027 16.1464 11.904C16.3118 11.6 16.3944 11.1893 16.3944 10.672V9.736C16.3944 9.224 16.3118 8.81867 16.1464 8.52C15.9811 8.216 15.6984 8.064 15.2984 8.064C14.8984 8.064 14.6158 8.216 14.4504 8.52C14.2851 8.81867 14.2024 9.224 14.2024 9.736V10.68C14.2024 11.192 14.2851 11.6 14.4504 11.904C14.6158 12.2027 14.8984 12.352 15.2984 12.352Z" fill="#4B5562"/>
</svg>
