<svg width="18" height="18" viewBox="0 0 18 18" fill="none" xmlns="http://www.w3.org/2000/svg">
<path d="M0.54 0C0.241766 0 0 0.239373 0 0.534654V4.81188C0 5.10716 0.241766 5.34653 0.54 5.34653H2.16L2.16 15.6832H8.055V17.0125L11.16 15.2376L8.055 13.4627V14.9703L2.88 14.9703L2.88 5.34653H4.86C5.15823 5.34653 5.4 5.10716 5.4 4.81188V0.534653C5.4 0.239373 5.15823 0 4.86 0H0.54Z" fill="#F3F4F6"/>
<path d="M13.14 12.6535C12.8418 12.6535 12.6 12.8928 12.6 13.1881V17.4653C12.6 17.7606 12.8418 18 13.14 18H17.46C17.7582 18 18 17.7606 18 17.4653V13.1881C18 12.8928 17.7582 12.6535 17.46 12.6535H15.66V2.31683L10.125 2.31683V0.987453L7.02 2.76238L10.125 4.5373V3.0297L14.94 3.0297V12.6535H13.14Z" fill="#F3F4F6"/>
</svg>
