<svg width="16" height="16" viewBox="0 0 16 16" fill="none" xmlns="http://www.w3.org/2000/svg">
<path d="M7.33268 11.9993C7.33268 12.7327 6.73268 13.3327 5.99935 13.3327C5.26602 13.3327 4.66602 12.7327 4.66602 11.9993C4.66602 11.266 5.26602 10.666 5.99935 10.666C6.73268 10.666 7.33268 11.266 7.33268 11.9993ZM5.99935 6.66602C5.26602 6.66602 4.66602 7.26602 4.66602 7.99935C4.66602 8.73268 5.26602 9.33268 5.99935 9.33268C6.73268 9.33268 7.33268 8.73268 7.33268 7.99935C7.33268 7.26602 6.73268 6.66602 5.99935 6.66602ZM5.99935 2.66602C5.26602 2.66602 4.66602 3.26602 4.66602 3.99935C4.66602 4.73268 5.26602 5.33268 5.99935 5.33268C6.73268 5.33268 7.33268 4.73268 7.33268 3.99935C7.33268 3.26602 6.73268 2.66602 5.99935 2.66602ZM9.99935 5.33268C10.7327 5.33268 11.3327 4.73268 11.3327 3.99935C11.3327 3.26602 10.7327 2.66602 9.99935 2.66602C9.26602 2.66602 8.66602 3.26602 8.66602 3.99935C8.66602 4.73268 9.26602 5.33268 9.99935 5.33268ZM9.99935 6.66602C9.26602 6.66602 8.66602 7.26602 8.66602 7.99935C8.66602 8.73268 9.26602 9.33268 9.99935 9.33268C10.7327 9.33268 11.3327 8.73268 11.3327 7.99935C11.3327 7.26602 10.7327 6.66602 9.99935 6.66602ZM9.99935 10.666C9.26602 10.666 8.66602 11.266 8.66602 11.9993C8.66602 12.7327 9.26602 13.3327 9.99935 13.3327C10.7327 13.3327 11.3327 12.7327 11.3327 11.9993C11.3327 11.266 10.7327 10.666 9.99935 10.666Z" fill="#9CA3AF"/>
</svg>
