<svg width="23" height="23" viewBox="0 0 23 23" fill="none" xmlns="http://www.w3.org/2000/svg">
<path d="M20.125 1.4375H2.875C2.49387 1.43788 2.12846 1.58945 1.85895 1.85895C1.58945 2.12846 1.43788 2.49387 1.4375 2.875V20.125C1.43788 20.5061 1.58945 20.8715 1.85895 21.141C2.12846 21.4105 2.49387 21.5621 2.875 21.5625H20.125C20.5061 21.5621 20.8715 21.4105 21.141 21.141C21.4105 20.8715 21.5621 20.5061 21.5625 20.125V2.875C21.5621 2.49387 21.4105 2.12846 21.141 1.85895C20.8715 1.58945 20.5061 1.43788 20.125 1.4375ZM20.125 10.0625H16.5312V2.875H20.125V10.0625ZM11.5 2.875H15.0938V10.0625H11.5V2.875ZM10.0625 2.875V14.375H2.875V2.875H10.0625ZM2.875 15.8125H10.0625V20.125H2.875V15.8125ZM11.5 20.125V11.5H20.125V20.125H11.5Z" fill="#D1D5DB"/>
</svg>
