<svg width="24" height="24" viewBox="0 0 24 24" fill="none" xmlns="http://www.w3.org/2000/svg">
<path d="M8.46816 8.55596L5.17254 13.4124C5.06011 13.5781 5 13.7737 5 13.9739V18C5 18.5523 5.44772 19 6 19H22.4857H22.7429C22.8849 19 23 18.8849 23 18.7429V4.99863C23 3.95769 21.6077 3.6095 21.1177 4.5279L19.2377 8.05161C18.8818 8.71865 17.9429 8.76472 17.5235 8.13573L16.4613 6.54315C16.0169 5.87673 15.0084 5.97727 14.7043 6.71832L13.1473 10.5119C12.834 11.2754 11.7829 11.3521 11.362 10.6422L10.1558 8.60754C9.78212 7.97714 8.87967 7.94956 8.46816 8.55596Z" fill="#D1D5DB"/>
<path fill-rule="evenodd" clip-rule="evenodd" d="M2.3335 0C1.78121 0 1.3335 0.447716 1.3335 1V21H1C0.447715 21 0 21.4477 0 22C0 22.5523 0.447716 23 1 23H1.3335C1.3335 23.5523 1.78121 24 2.3335 24C2.88578 24 3.3335 23.5523 3.3335 23H23C23.5523 23 24 22.5523 24 22C24 21.4477 23.5523 21 23 21H3.3335V1C3.3335 0.447715 2.88578 0 2.3335 0Z" fill="#6B7280"/>
</svg>
