<?xml version="1.0" ?><svg height="20" id="icon" viewBox="0 0 32 32" width="15" fill="#D1D5DB" xmlns="http://www.w3.org/2000/svg"><defs><style>.cls-1{fill:none;}</style></defs><title/><path d="M23,9h6a2,2,0,0,0,2-2V3a2,2,0,0,0-2-2H23a2,2,0,0,0-2,2V4H11V3A2,2,0,0,0,9,1H3A2,2,0,0,0,1,3V7A2,2,0,0,0,3,9H9a2,2,0,0,0,2-2V6h4V26a2.0023,2.0023,0,0,0,2,2h4v1a2,2,0,0,0,2,2h6a2,2,0,0,0,2-2V25a2,2,0,0,0-2-2H23a2,2,0,0,0-2,2v1H17V17h4v1a2,2,0,0,0,2,2h6a2,2,0,0,0,2-2V14a2,2,0,0,0-2-2H23a2,2,0,0,0-2,2v1H17V6h4V7A2,2,0,0,0,23,9Zm0-6h6V7H23ZM9,7H3V3H9ZM23,25h6v4H23Zm0-11h6v4H23Z" transform="translate(0 0.0049)"/><rect class="cls-1" data-name="&lt;Transparent Rectangle&gt;" height="32" id="_Transparent_Rectangle_" width="32"/></svg>





