<svg width="56" height="24" viewBox="0 0 56 24" fill="none" xmlns="http://www.w3.org/2000/svg">
<rect width="56" height="24" rx="2" fill="#D1D5DB"/>
<path d="M8.69835 15.066C8.06035 15.066 7.49202 14.9377 6.99335 14.681C6.49469 14.417 6.10235 14.0577 5.81635 13.603C5.53768 13.1483 5.39835 12.6277 5.39835 12.041V7.3H7.29035V11.942C7.29035 12.2207 7.35269 12.4737 7.47735 12.701C7.60202 12.921 7.77068 13.097 7.98335 13.229C8.19602 13.3537 8.43435 13.416 8.69835 13.416C8.97702 13.416 9.22269 13.3537 9.43535 13.229C9.65535 13.097 9.83135 12.921 9.96335 12.701C10.0954 12.4737 10.1614 12.2207 10.1614 11.942V7.3H11.9874V12.041C11.9874 12.6277 11.8444 13.1483 11.5584 13.603C11.2797 14.0577 10.891 14.417 10.3924 14.681C9.89368 14.9377 9.32902 15.066 8.69835 15.066ZM13.8645 15V7.3H17.1865C17.6705 7.3 18.0995 7.41 18.4735 7.63C18.8548 7.85 19.1555 8.15067 19.3755 8.532C19.6028 8.91333 19.7165 9.34233 19.7165 9.819C19.7165 10.3177 19.6028 10.765 19.3755 11.161C19.1555 11.5497 18.8548 11.8577 18.4735 12.085C18.0995 12.3123 17.6705 12.426 17.1865 12.426H15.7345V15H13.8645ZM15.7015 10.787H16.9225C17.0838 10.787 17.2305 10.7467 17.3625 10.666C17.4945 10.5853 17.6008 10.4753 17.6815 10.336C17.7622 10.1967 17.8025 10.0353 17.8025 9.852C17.8025 9.66133 17.7622 9.5 17.6815 9.368C17.6008 9.236 17.4945 9.13333 17.3625 9.06C17.2305 8.98667 17.0838 8.95 16.9225 8.95H15.7015V10.787ZM21.1477 15V7.3H23.0177V13.35H26.4497V15H21.1477ZM31.145 15.11C30.5583 15.11 30.023 15.011 29.539 14.813C29.055 14.615 28.6333 14.3363 28.274 13.977C27.9146 13.6177 27.636 13.196 27.438 12.712C27.24 12.228 27.141 11.6963 27.141 11.117C27.141 10.5377 27.24 10.006 27.438 9.522C27.636 9.038 27.9146 8.61633 28.274 8.257C28.6333 7.89767 29.055 7.619 29.539 7.421C30.023 7.223 30.5546 7.124 31.134 7.124C31.7133 7.124 32.245 7.223 32.729 7.421C33.213 7.619 33.6346 7.89767 33.994 8.257C34.3533 8.61633 34.6283 9.038 34.819 9.522C35.017 10.006 35.116 10.5377 35.116 11.117C35.116 11.689 35.017 12.2207 34.819 12.712C34.6283 13.196 34.3533 13.6177 33.994 13.977C33.6346 14.3363 33.213 14.615 32.729 14.813C32.245 15.011 31.717 15.11 31.145 15.11ZM31.134 13.35C31.4346 13.35 31.7096 13.295 31.959 13.185C32.2156 13.075 32.4356 12.921 32.619 12.723C32.8096 12.5177 32.9563 12.2793 33.059 12.008C33.1616 11.7367 33.213 11.4397 33.213 11.117C33.213 10.7943 33.1616 10.4973 33.059 10.226C32.9563 9.95467 32.8096 9.72 32.619 9.522C32.4356 9.31667 32.2156 9.159 31.959 9.049C31.7096 8.939 31.4346 8.884 31.134 8.884C30.8333 8.884 30.5546 8.939 30.298 9.049C30.0486 9.159 29.8286 9.31667 29.638 9.522C29.4473 9.72 29.3006 9.95467 29.198 10.226C29.1026 10.4973 29.055 10.7943 29.055 11.117C29.055 11.4397 29.1026 11.7403 29.198 12.019C29.3006 12.2903 29.4473 12.525 29.638 12.723C29.8286 12.921 30.0486 13.075 30.298 13.185C30.5546 13.295 30.8333 13.35 31.134 13.35ZM35.3689 15L38.4159 7.3H39.9999L43.0249 15H41.1329L39.6809 11.095C39.6222 10.941 39.5635 10.776 39.5049 10.6C39.4462 10.424 39.3875 10.2443 39.3289 10.061C39.2702 9.87033 39.2115 9.687 39.1529 9.511C39.1015 9.32767 39.0575 9.159 39.0209 9.005L39.3509 8.994C39.3069 9.17733 39.2555 9.357 39.1969 9.533C39.1455 9.709 39.0905 9.885 39.0319 10.061C38.9805 10.2297 38.9219 10.402 38.8559 10.578C38.7899 10.7467 38.7275 10.9227 38.6689 11.106L37.2169 15H35.3689ZM36.8209 13.526L37.4039 12.118H40.9459L41.5179 13.526H36.8209ZM43.9856 15V7.3H47.2086C47.7732 7.3 48.2902 7.39533 48.7596 7.586C49.2289 7.76933 49.6322 8.03333 49.9696 8.378C50.3142 8.72267 50.5782 9.12967 50.7616 9.599C50.9449 10.0683 51.0366 10.5853 51.0366 11.15C51.0366 11.7147 50.9449 12.2353 50.7616 12.712C50.5782 13.1813 50.3142 13.5883 49.9696 13.933C49.6322 14.2703 49.2289 14.5343 48.7596 14.725C48.2902 14.9083 47.7732 15 47.2086 15H43.9856ZM45.8556 13.724L45.6026 13.35H47.1536C47.4616 13.35 47.7366 13.2987 47.9786 13.196C48.2206 13.086 48.4259 12.9357 48.5946 12.745C48.7706 12.5543 48.9062 12.3233 49.0016 12.052C49.0969 11.7807 49.1446 11.48 49.1446 11.15C49.1446 10.82 49.0969 10.5193 49.0016 10.248C48.9062 9.97667 48.7706 9.74567 48.5946 9.555C48.4259 9.36433 48.2206 9.21767 47.9786 9.115C47.7366 9.005 47.4616 8.95 47.1536 8.95H45.5696L45.8556 8.598V13.724Z" fill="#4B5563"/>
</svg>
