<svg width="24" height="24" viewBox="0 0 24 24" fill="none" xmlns="http://www.w3.org/2000/svg">
<path d="M8.42857 16.6964H13.5714C14.2786 16.6964 14.8571 16.0997 14.8571 15.3705V8.74095H16.9014C18.0457 8.74095 18.6243 7.30898 17.8143 6.47366L11.9129 0.387753C11.7939 0.264837 11.6526 0.16732 11.4971 0.100784C11.3416 0.0342481 11.1748 0 11.0064 0C10.838 0 10.6713 0.0342481 10.5158 0.100784C10.3602 0.16732 10.2189 0.264837 10.1 0.387753L4.19857 6.47366C3.38857 7.30898 3.95429 8.74095 5.09857 8.74095H7.14286V15.3705C7.14286 16.0997 7.72143 16.6964 8.42857 16.6964ZM3.28571 19.3482H18.7143C19.4214 19.3482 20 19.9448 20 20.6741C20 21.4033 19.4214 22 18.7143 22H3.28571C2.57857 22 2 21.4033 2 20.6741C2 19.9448 2.57857 19.3482 3.28571 19.3482Z" fill="#D1D5DB"/>
</svg>
