<svg width="23" height="23" viewBox="0 0 23 23" fill="none" xmlns="http://www.w3.org/2000/svg">
<path d="M11.5 21.5625C8.83219 21.5595 6.27453 20.4983 4.3881 18.6119C2.50167 16.7255 1.44054 14.1678 1.4375 11.5H2.875C2.875 13.2059 3.38085 14.8734 4.32857 16.2918C5.2763 17.7102 6.62334 18.8157 8.19936 19.4685C9.77537 20.1213 11.5096 20.2921 13.1827 19.9593C14.8557 19.6265 16.3926 18.805 17.5988 17.5988C18.805 16.3926 19.6265 14.8557 19.9593 13.1827C20.2921 11.5096 20.1213 9.77537 19.4685 8.19936C18.8157 6.62334 17.7102 5.2763 16.2918 4.32857C14.8734 3.38085 13.2059 2.875 11.5 2.875V1.4375C14.1687 1.4375 16.7282 2.49765 18.6153 4.38474C20.5023 6.27182 21.5625 8.83126 21.5625 11.5C21.5625 14.1687 20.5023 16.7282 18.6153 18.6153C16.7282 20.5023 14.1687 21.5625 11.5 21.5625Z" fill="#D1D5DB"/>
<path d="M11.5 18.6875C9.5944 18.6854 7.76745 17.9275 6.41998 16.58C5.07252 15.2326 4.31459 13.4056 4.3125 11.5H5.75C5.75 12.6372 6.08723 13.7489 6.71905 14.6945C7.35087 15.6401 8.2489 16.3771 9.29957 16.8123C10.3502 17.2475 11.5064 17.3614 12.6218 17.1395C13.7372 16.9177 14.7617 16.37 15.5659 15.5659C16.37 14.7617 16.9177 13.7372 17.1395 12.6218C17.3614 11.5064 17.2475 10.3502 16.8123 9.29957C16.3771 8.2489 15.6401 7.35087 14.6945 6.71905C13.7489 6.08723 12.6372 5.75 11.5 5.75V4.3125C13.4062 4.3125 15.2344 5.06975 16.5823 6.41767C17.9302 7.76559 18.6875 9.59376 18.6875 11.5C18.6875 13.4062 17.9302 15.2344 16.5823 16.5823C15.2344 17.9302 13.4062 18.6875 11.5 18.6875Z" fill="#D1D5DB"/>
<path d="M11.5 15.8125C10.3567 15.8112 9.26053 15.3564 8.45207 14.5479C7.64361 13.7395 7.18883 12.6433 7.1875 11.5H8.625C8.625 12.0686 8.79362 12.6245 9.10953 13.0973C9.42543 13.5701 9.87445 13.9386 10.3998 14.1562C10.9251 14.3738 11.5032 14.4307 12.0609 14.3198C12.6186 14.2088 13.1309 13.935 13.5329 13.5329C13.935 13.1309 14.2088 12.6186 14.3198 12.0609C14.4307 11.5032 14.3738 10.9251 14.1562 10.3998C13.9386 9.87445 13.5701 9.42543 13.0973 9.10953C12.6245 8.79362 12.0686 8.625 11.5 8.625V7.1875C12.6437 7.1875 13.7406 7.64185 14.5494 8.4506C15.3581 9.25935 15.8125 10.3563 15.8125 11.5C15.8125 12.6437 15.3581 13.7406 14.5494 14.5494C13.7406 15.3581 12.6437 15.8125 11.5 15.8125Z" fill="#D1D5DB"/>
</svg>
