<svg width="10" height="10" viewBox="0 0 10 10" fill="none" xmlns="http://www.w3.org/2000/svg">
<path d="M8.57005 5.46722C8.58805 5.31722 8.60005 5.16122 8.60005 4.99922C8.60005 4.83722 8.58805 4.68122 8.56405 4.53122L9.57805 3.73922C9.66805 3.66722 9.69205 3.53522 9.63805 3.43322L8.67805 1.77122C8.61805 1.66322 8.49205 1.62722 8.38405 1.66322L7.19005 2.14322C6.93805 1.95122 6.67405 1.79522 6.38005 1.67522L6.20005 0.403219C6.18205 0.283219 6.08005 0.199219 5.96005 0.199219H4.04005C3.92005 0.199219 3.82405 0.283219 3.80605 0.403219L3.62605 1.67522C3.33205 1.79522 3.06205 1.95722 2.81605 2.14322L1.62205 1.66322C1.51405 1.62122 1.38805 1.66322 1.32805 1.77122L0.368053 3.43322C0.308053 3.54122 0.332053 3.66722 0.428053 3.73922L1.44205 4.53122C1.41805 4.68122 1.40005 4.84322 1.40005 4.99922C1.40005 5.15522 1.41205 5.31722 1.43605 5.46722L0.422053 6.25922C0.332053 6.33122 0.308053 6.46322 0.362053 6.56522L1.32205 8.22722C1.38205 8.33522 1.50805 8.37122 1.61605 8.33522L2.81005 7.85522C3.06205 8.04722 3.32605 8.20322 3.62005 8.32322L3.80005 9.59522C3.82405 9.71522 3.92005 9.79922 4.04005 9.79922H5.96005C6.08005 9.79922 6.18205 9.71522 6.19405 9.59522L6.37405 8.32322C6.66805 8.20322 6.93805 8.04122 7.18405 7.85522L8.37805 8.33522C8.48605 8.37722 8.61205 8.33522 8.67205 8.22722L9.63205 6.56522C9.69205 6.45722 9.66805 6.33122 9.57205 6.25922L8.57005 5.46722ZM5.00005 6.79922C4.01005 6.79922 3.20005 5.98922 3.20005 4.99922C3.20005 4.00922 4.01005 3.19922 5.00005 3.19922C5.99005 3.19922 6.80005 4.00922 6.80005 4.99922C6.80005 5.98922 5.99005 6.79922 5.00005 6.79922Z" fill="#D1D5DB"/>
</svg>