<svg width="18" height="18" viewBox="0 0 18 18" fill="none" xmlns="http://www.w3.org/2000/svg">
<path d="M15 13.5C15.825 13.5 16.4925 12.825 16.4925 12L16.5 3.75C16.5 2.925 15.825 2.25 15 2.25H3C2.175 2.25 1.5 2.925 1.5 3.75V12C1.5 12.825 2.175 13.5 3 13.5H0C0 14.325 0.675 15 1.5 15H16.5C17.325 15 18 14.325 18 13.5H15ZM3 3.75H15V12H3V3.75ZM9 14.25C8.5875 14.25 8.25 13.9125 8.25 13.5C8.25 13.0875 8.5875 12.75 9 12.75C9.4125 12.75 9.75 13.0875 9.75 13.5C9.75 13.9125 9.4125 14.25 9 14.25Z" fill="#F3F4F6"/>
</svg>
