<svg width="16" height="9" viewBox="0 0 16 9" fill="none" xmlns="http://www.w3.org/2000/svg">
<path d="M0.664063 1.74288L0.664063 7.03699C0.664062 7.95023 1.40781 8.69141 2.32422 8.69141H13.6133C14.5297 8.69141 15.2734 7.95023 15.2734 7.03699V1.74288C15.2734 0.829642 14.5297 0.0884657 13.6133 0.0884657H2.32422C1.40781 0.0884657 0.664063 0.829642 0.664063 1.74288ZM14.6094 4.38994C14.6094 4.9392 14.1645 5.38258 13.6133 5.38258C13.0621 5.38258 12.6172 4.9392 12.6172 4.38994C12.6172 3.84067 13.0621 3.39729 13.6133 3.39729C14.1645 3.39729 14.6094 3.84067 14.6094 4.38994ZM11.9531 1.41199V7.36788L2.65625 7.36788L2.65625 1.41199L11.9531 1.41199Z" fill="#F3F4F6"/>
</svg>
