<svg width="18" height="18" viewBox="0 0 18 18" fill="none" xmlns="http://www.w3.org/2000/svg">
<path d="M11.9485 1.66406H6.65441C5.74118 1.66406 5 2.40781 5 3.32422V14.6133C5 15.5297 5.74118 16.2734 6.65441 16.2734H11.9485C12.8618 16.2734 13.6029 15.5297 13.6029 14.6133V3.32422C13.6029 2.40781 12.8618 1.66406 11.9485 1.66406ZM9.30147 15.6094C8.75221 15.6094 8.30882 15.1645 8.30882 14.6133C8.30882 14.0621 8.75221 13.6172 9.30147 13.6172C9.85074 13.6172 10.2941 14.0621 10.2941 14.6133C10.2941 15.1645 9.85074 15.6094 9.30147 15.6094ZM12.2794 12.9531H6.32353V3.65625H12.2794V12.9531Z" fill="#F3F4F6"/>
</svg>
