<svg width="56" height="24" viewBox="0 0 56 24" fill="none" xmlns="http://www.w3.org/2000/svg">
  <g
     id="g870"
     transform="matrix(0.04149344,0,0,0.04149344,1.6676389,-7.9785382)"
     style="fill:#f6f5f4">
    <path
       d="m 116.6,358.9 c -6.5,4.3 -10.4,12.1 -20,40.1 -3.8,10.7 -8,21.7 -9.4,24.5 -4.3,8 -4.5,8 -36.5,7.7 -29.3,-0.3 -37.5,0.4 -43.8,4 -4.1,2.3 -6.9,6.4 -6.9,10.2 0,8.1 7.3,16.2 31,34.1 9.6,7.3 19.5,15.4 22,17.9 4.1,4.3 4.4,4.9 4.2,9.6 -0.1,2.7 -2.2,10.8 -4.8,18.2 -2.5,7.3 -6.4,18.7 -8.6,25.3 -6.9,20.3 -6.2,31.5 2.2,35.8 6.8,3.5 16.8,-0.2 35.3,-13 22.8,-15.8 29.5,-20.1 34,-21.8 l 4.7,-1.8 5.3,2.8 c 3,1.5 13,8.5 22.3,15.7 19.7,15.2 27.9,20.3 35.1,21.8 4.6,1 5.8,0.9 9,-0.7 9.9,-4.8 9.8,-15.5 -0.7,-49.3 -5.9,-19 -8.4,-30.2 -7.6,-33.5 0.9,-3.5 9.7,-10.9 26.7,-22.5 26.4,-18 32.9,-24.7 32.9,-33.8 0,-3.6 -0.6,-5 -3.3,-7.7 -5.6,-5.6 -11,-6.6 -39.2,-7.5 -33.9,-1.2 -36.2,-1.5 -40.1,-5.4 -3.3,-3.3 -3.2,-2.9 -15.9,-43.8 -6.4,-20.5 -12.4,-28.8 -20.8,-28.8 -2.5,0 -5.4,0.8 -7.1,1.9 z m 13.4,17.6 c 1.5,3.3 5.3,14.8 8.5,25.5 6.4,21.8 10.8,32.1 15.3,36.4 5.1,4.7 11,5.7 40.2,6.6 36.5,1.1 41.9,2.5 36.5,9.5 -3.4,4.6 -8.6,8.6 -27.7,21.8 -17.9,12.4 -24,17.4 -27.5,23.1 -4,6.3 -3,15.1 5,41.7 9.1,29.9 10.4,38.9 5.8,38.9 -3.9,0 -13,-5.7 -30.6,-19.1 -10.4,-7.8 -21.8,-15.8 -25.3,-17.6 -11.9,-6.2 -17.9,-4.4 -42.1,12.5 C 63.6,573 56.8,577 52,577 47.2,577 49.1,566.3 58.7,539.6 71,505.4 71,500.1 58.8,488.4 55.9,485.6 46.3,477.8 37.5,471.2 c -17,-12.7 -26.9,-22.1 -26.3,-25 0.7,-3.5 6.7,-4.2 39.6,-4.5 30.7,-0.2 31.8,-0.3 35.9,-2.4 4.4,-2.4 8.9,-8 11.8,-14.8 0.9,-2.2 4.6,-12.3 8.1,-22.5 7.2,-20.7 11.2,-29.8 14.4,-33 2.1,-2.1 2.2,-2.1 4.2,-0.3 1.2,1 3.3,4.5 4.8,7.8 z"
       id="path14"
       style="fill:#f6f5f4;stroke:none;stroke-width:0.1" />
    <path
       d="m 373.9,360.7 c -5.5,5 -9.5,13.4 -17.5,36.4 -3.6,10.7 -7.9,22 -9.5,25.1 -4.8,9.6 -3.5,9.3 -39.9,9.3 -34.8,0 -37.8,0.4 -43.6,5.8 -6.7,6.2 -5.3,14 4.4,24 2.6,2.7 12.6,10.8 22.2,18.1 9.6,7.4 19.7,15.7 22.4,18.5 4.7,5.1 4.8,5.3 4.1,9.9 -0.7,4.9 -4.3,16.2 -11.3,36.2 -9.4,26.4 -9.4,37.6 -0.2,42.3 7.6,3.9 18,-0.6 44.5,-19.2 8.8,-6.2 18.8,-12.6 22.2,-14.3 6.3,-3.1 6.3,-3.1 10.6,-1.4 2.4,0.9 13.7,8.7 25.2,17.4 21.2,15.9 26.5,19.2 34.9,21.3 3.9,1 5,0.9 8.3,-0.7 8.6,-4.3 9.5,-16 2.8,-38.4 -2.1,-6.9 -5.3,-17.7 -7.2,-24 -1.9,-6.3 -3.5,-13.9 -3.6,-16.9 -0.2,-5.2 -0.1,-5.4 4.9,-10 2.8,-2.5 12.9,-10 22.5,-16.6 26.6,-18.2 35,-27.9 31.8,-36.4 -3.4,-8.8 -13.7,-12.1 -38,-12.1 -18.7,-0.1 -38.2,-1.6 -41.6,-3.2 -4.2,-2 -7.5,-9.2 -13.8,-30.2 -11.1,-37.3 -15.4,-44.6 -26.4,-44.6 -3.3,0 -4.9,0.7 -8.2,3.7 z m 13.9,13.1 c 1.7,3.2 4.9,12 7.2,19.7 12.1,40.9 15.2,46.6 27.1,49.5 2.4,0.6 16.3,1.5 30.9,2 33.3,1 41,2.6 38.1,7.7 -2.1,3.9 -10.3,10.7 -27.1,22.2 -21.2,14.7 -27.7,20.2 -30.1,25.5 -3.5,7.6 -2.3,15.3 7,45.3 7.5,24.2 8.8,34.3 4.2,34.3 -3.9,0 -14.4,-6.6 -31.1,-19.5 -9.6,-7.5 -20.7,-15.2 -24.7,-17.2 -12.6,-6.2 -17.6,-4.6 -45.7,15.2 -24.7,17.3 -34.4,21.8 -34.7,16.2 -0.4,-6 0.9,-11.1 8.8,-34.7 9.8,-29 11,-35.8 7.5,-42.6 -2.8,-5.5 -11.1,-13.1 -29.7,-27.1 -16.9,-12.7 -25.9,-21.2 -25.3,-24.1 0.7,-3.5 6.7,-4.2 39.6,-4.5 35,-0.3 36.3,-0.5 41.6,-6.8 4.2,-4.9 6.8,-10.8 14.1,-31.9 9.5,-27.5 14.2,-36.8 17.9,-35.4 0.8,0.3 2.8,3.1 4.4,6.2 z"
       id="path16"
       style="fill:#f6f5f4;stroke:none;stroke-width:0.1" />
    <path
       d="m 633,360.7 c -5.3,4.7 -10.1,14.8 -18,37.8 -7.4,21.4 -10.5,28.2 -14.3,31 -2.7,1.9 -4.2,2 -35,2 -28.3,0.1 -32.7,0.3 -36.7,1.8 -5.8,2.3 -8.8,5.2 -10.2,9.8 -1,3.4 -0.8,4.4 1.6,9.3 3.3,6.8 9.6,12.6 30.2,28.1 17.8,13.4 24,19.1 25,23 0.9,3.6 -1.2,11.7 -9.4,35 -3.8,11 -7.5,23.1 -8.2,26.8 -2.1,11.6 0.5,19.4 7.5,21.7 7.7,2.6 16.9,-1.7 42.8,-19.6 22.1,-15.4 27.3,-18 32.1,-16.4 3.7,1.2 13.9,8.2 32.4,22.4 19.4,14.8 29.3,19.2 36.5,16.2 5.5,-2.2 7.7,-6.6 7.7,-15.1 0,-8.4 -1.2,-13.6 -8.5,-37 -3.6,-11.4 -5.8,-20.7 -6.2,-25.3 l -0.6,-7.3 4.9,-4.7 c 2.8,-2.6 12.7,-10 22.2,-16.5 9.4,-6.5 19.8,-14.2 23.1,-17.3 10.5,-9.7 12.5,-17.9 5.8,-24.1 -5.8,-5.4 -14.6,-7.3 -34.6,-7.3 -18.8,-0.1 -38.4,-1.5 -41.8,-3.2 -4.1,-1.9 -8.1,-11.1 -14.8,-33.8 -9.6,-32.8 -14.6,-41 -25.2,-41 -3.5,0 -5,0.7 -8.3,3.7 z m 12.3,10 c 3.4,5.5 5.9,12.4 12.2,33.6 6.2,20.8 8.5,26.6 12.1,31.5 5.4,7.1 15.2,9.2 42.2,9.2 25.1,0 37.7,1.9 39,5.8 0.8,2.5 -12,13.4 -29.3,25.3 -20.5,14 -25.6,18.5 -28.6,24.5 -3.6,7.5 -2.3,14.7 8.4,49.4 6.1,19.6 7.2,29.1 3.4,29.8 -3.4,0.7 -12.2,-4.7 -32,-19.6 -10.8,-8.2 -22.2,-16.1 -25.1,-17.5 -11.8,-5.8 -17.4,-3.6 -50.6,19.8 -13.2,9.2 -22.9,14.5 -26.9,14.5 -2.3,0 -2.4,-0.2 -1.9,-6.8 0.5,-6.6 2.5,-13.1 12.4,-41.2 5.3,-15.1 6.8,-26.4 4.2,-31.3 -2.6,-5.1 -11.3,-13 -28.9,-26.3 -17.9,-13.5 -27.2,-22.4 -26.7,-25.3 0.7,-3.5 7.2,-4.2 36.9,-4.1 17.6,0 30.6,-0.4 33.8,-1.1 10.5,-2.2 14.6,-8.5 25,-38.6 3.8,-10.9 7.9,-21.9 9,-24.5 2.3,-5 6.7,-10.8 8.2,-10.8 0.5,0 1.9,1.7 3.2,3.7 z"
       id="path18"
       style="fill:#f6f5f4;stroke:none;stroke-width:0.1" />
    <path
       d="m 892.3,360.5 c -5.3,4.5 -9.6,13.5 -17.3,36 -7.3,21.2 -11.5,30.2 -15.3,33 -2.7,1.9 -4.3,2 -35,2 -24.8,0.1 -33,0.4 -35.7,1.4 -12.6,4.9 -14.8,13.5 -6.5,24.4 3.8,5 10.8,10.9 32.2,27.1 7.9,5.9 15.7,12.4 17.4,14.4 2.8,3.4 3,4.2 2.5,9 -0.2,2.9 -3.2,13.2 -6.7,23 -12,34.5 -13.5,41.8 -10.1,49.4 1.4,3.2 2.9,4.9 5.7,6.2 7,3.3 15.5,0.3 33,-11.6 6.1,-4.1 15.7,-10.7 21.4,-14.6 5.7,-4 12.4,-7.9 14.8,-8.8 4.3,-1.7 4.4,-1.7 10.1,1.3 3.1,1.6 14.2,9.3 24.6,17.2 25.9,19.7 35.9,23.9 43.3,18.5 8.7,-6.4 7.7,-17 -5.3,-58.4 -2,-6.3 -3.9,-14.6 -4.1,-18.3 l -0.6,-6.8 4.6,-4.3 c 2.4,-2.4 12.3,-9.7 21.8,-16.2 26.7,-18.4 35.1,-27.3 33.5,-35.9 -1.8,-9.5 -13.2,-13.5 -38.7,-13.5 -18.7,-0.1 -38.2,-1.6 -41.5,-3.2 -4.3,-2 -6.6,-7.2 -14.4,-32.8 -10.3,-33.9 -15.3,-42 -25.6,-42 -3.2,0 -4.9,0.7 -8.1,3.5 z m 12.7,11.1 c 2.7,4.3 4.1,8.2 14,40.4 2.3,7.4 5.5,16 7.1,19.1 5.8,11.7 9.6,12.8 45.9,13.9 29.9,0.9 38,2.2 38,6 0,3 -8.8,10.9 -23.7,21 -35.7,24.5 -38.5,28.1 -34.9,45.6 0.9,4.4 4,15.8 7,25.5 6.1,19.9 7.9,27.8 7.4,32.9 -0.3,3.2 -0.5,3.5 -3.5,3.4 -4.2,-0.2 -12.6,-5.4 -28.6,-17.8 -23.1,-17.9 -29.5,-21.6 -37.1,-21.6 -6.1,0 -15.7,5.1 -34.6,18.3 -18.3,12.9 -28.4,18.7 -32.5,18.7 h -2.8 l 0.5,-6.4 c 0.4,-4.5 3.2,-14.3 9.2,-31.9 7.1,-20.9 8.7,-26.5 8.8,-31.8 0.2,-11.2 -3.2,-15.2 -29.4,-35 -9,-6.8 -18.2,-14.1 -20.6,-16.3 -4.6,-4.3 -7.7,-9 -6.7,-10.6 1.5,-2.5 10,-3.2 37,-3.1 32.2,0.2 36.9,-0.4 42.4,-5.5 4.9,-4.4 8.5,-12 16.6,-35.4 3.7,-10.7 7.9,-21.8 9.2,-24.5 2.6,-5.2 6,-9.5 7.5,-9.5 0.5,0 2.2,2.1 3.8,4.6 z"
       id="path20"
       style="fill:#f6f5f4;stroke:none;stroke-width:0.1" />
    <path
       d="m 1151.9,360 c -5.2,4.2 -10.6,15.5 -18.4,38 -7.6,22.1 -11.4,30.1 -15.3,32.1 -2.1,1.1 -9.6,1.4 -33.7,1.4 -34.5,0 -38.3,0.5 -44.1,6 -2.8,2.7 -3.4,3.9 -3.4,7.5 0,9.4 5.9,16 32.2,35.8 9.7,7.3 19.2,15 21.2,17.2 5.3,5.9 5,8.4 -4.8,37.1 -11.9,34.9 -12.8,42.5 -5.6,49.4 2.6,2.5 3.9,2.9 8.3,2.9 7.2,0 16.6,-4.8 35.2,-17.9 17.9,-12.6 25.4,-17.3 29.7,-18.6 5.6,-1.6 10,1 39.7,23.9 21.4,16.5 32.9,19.6 39.9,10.8 5,-6.4 4,-15.1 -5.4,-46.2 -3.6,-12.1 -6.8,-24.7 -7.1,-28.1 l -0.6,-6.1 4.6,-4.4 c 2.5,-2.5 8.8,-7.3 13.9,-10.8 27.8,-19 36.9,-26.5 40.1,-33.3 4.9,-10.3 -1.7,-18.1 -17.5,-20.7 -3.4,-0.5 -12.4,-1 -19.8,-1 -20.1,-0.1 -38.2,-1.5 -41.7,-3.4 -4.2,-2.1 -7.1,-8.8 -14.3,-33.2 -7,-23.6 -10.6,-32 -16.1,-37.5 -3.4,-3.4 -4.5,-3.9 -8.7,-3.9 -3.8,0 -5.5,0.6 -8.3,3 z m 11.8,10.9 c 3,4.4 5.5,11.3 12,33.1 3,10.2 7,21.7 8.9,25.7 6.3,13.2 9.2,14.2 46.4,15.3 37.3,1.2 41.4,2.4 36,10.1 -2.3,3.2 -14.7,12.6 -32.5,24.7 -6.6,4.5 -14.1,10.2 -16.7,12.7 -11.3,10.8 -11.1,15.8 1.3,55.5 4,13.1 5.1,18.1 5.3,24 0.1,6.4 -0.1,7.5 -1.7,7.8 -3.3,0.7 -11.2,-4.2 -31.2,-19.3 -11,-8.3 -22.5,-16.3 -25.4,-17.8 -11.3,-5.6 -18.1,-3.2 -45.2,15.8 -17.6,12.4 -28.8,18.8 -32.1,18.3 -2.1,-0.3 -2.3,-0.8 -2.2,-6.3 0.1,-6 1.6,-11.1 11.8,-40 2.5,-7.2 5.1,-16.3 5.7,-20.2 1.2,-6.8 1.2,-7.2 -1.5,-12.6 -3,-6.3 -8.5,-11.5 -25.6,-24.2 -5.8,-4.3 -13.8,-10.5 -17.8,-13.8 -7.5,-6.1 -12.9,-12.8 -11.8,-14.6 1.6,-2.6 9.8,-3.3 37.1,-3.2 32.2,0.2 36.9,-0.4 42.4,-5.5 5.3,-4.7 8.1,-10.4 15.7,-32.4 7.7,-22.5 10.5,-29.1 14,-33.8 3,-3.8 4.1,-3.7 7.1,0.7 z"
       id="path22"
       style="fill:#f6f5f4;stroke:none;stroke-width:0.1" />
  </g>
</svg>
