<svg width="56" height="24" viewBox="0 0 56 24" fill="none" xmlns="http://www.w3.org/2000/svg">
<rect x="0.5" y="0.5" width="55" height="23" fill="#4B5563" stroke="#D1D5DB"/>
<rect width="6" height="2" transform="matrix(1 0 0 -1 17 21)" fill="#6B7280"/>
<rect width="6" height="2" transform="matrix(1 0 0 -1 25 21)" fill="#D1D5DB"/>
<rect width="6" height="2" transform="matrix(1 0 0 -1 33 21)" fill="#6B7280"/>
<path d="M25.1358 13L24.7728 12.098L27.0168 9.645C27.1415 9.50567 27.2771 9.348 27.4238 9.172C27.5705 8.996 27.7135 8.81633 27.8528 8.633C27.9921 8.44233 28.1021 8.259 28.1828 8.083C28.2708 7.907 28.3148 7.74567 28.3148 7.599C28.3148 7.45233 28.2818 7.324 28.2158 7.214C28.1498 7.104 28.0545 7.01967 27.9298 6.961C27.8051 6.895 27.6475 6.862 27.4568 6.862C27.2881 6.862 27.1268 6.906 26.9728 6.994C26.8188 7.07467 26.6721 7.203 26.5328 7.379C26.4008 7.555 26.2761 7.77133 26.1588 8.028L24.7728 7.28C24.9268 6.85467 25.1431 6.48067 25.4218 6.158C25.7078 5.828 26.0415 5.575 26.4228 5.399C26.8041 5.21567 27.2111 5.124 27.6438 5.124C28.0985 5.13133 28.5091 5.23033 28.8758 5.421C29.2425 5.60433 29.5322 5.86467 29.7448 6.202C29.9648 6.532 30.0748 6.92067 30.0748 7.368C30.0748 7.522 30.0565 7.68333 30.0198 7.852C29.9832 8.02067 29.9282 8.19667 29.8548 8.38C29.7815 8.556 29.6825 8.74667 29.5578 8.952C29.4405 9.15 29.2975 9.359 29.1288 9.579C28.9601 9.799 28.7621 10.0337 28.5348 10.283L26.7858 12.186L26.5658 11.35H30.4158V13H25.1358Z" fill="#D1D5DB"/>
</svg>
