<svg width="36" height="36" viewBox="0 0 36 36" fill="none" xmlns="http://www.w3.org/2000/svg">
<path d="M15.4349 5.79177L2.72991 27.0018C2.46796 27.4554 2.32936 27.9697 2.32789 28.4935C2.32643 29.0174 2.46215 29.5325 2.72155 29.9876C2.98095 30.4427 3.355 30.8219 3.80647 31.0875C4.25794 31.3532 4.77111 31.496 5.29491 31.5018H30.7049C31.2287 31.496 31.7419 31.3532 32.1933 31.0875C32.6448 30.8219 33.0189 30.4427 33.2783 29.9876C33.5377 29.5325 33.6734 29.0174 33.6719 28.4935C33.6705 27.9697 33.5319 27.4554 33.2699 27.0018L20.5649 5.79177C20.2975 5.35093 19.921 4.98645 19.4717 4.7335C19.0224 4.48054 18.5155 4.34766 17.9999 4.34766C17.4843 4.34766 16.9774 4.48054 16.5281 4.7335C16.0788 4.98645 15.7023 5.35093 15.4349 5.79177V5.79177Z" stroke="#9CA3AF" stroke-width="2" stroke-linecap="round" stroke-linejoin="round"/>
<path d="M18 13.5V19.5" stroke="#9CA3AF" stroke-width="2" stroke-linecap="round" stroke-linejoin="round"/>
<path d="M18 25.5H18.0155" stroke="#9CA3AF" stroke-width="2" stroke-linecap="round" stroke-linejoin="round"/>
</svg>
