<svg width="24" height="24" viewBox="0 0 24 24" fill="none" xmlns="http://www.w3.org/2000/svg">
<path d="M11.9995 1.04907e-06C9.62614 8.41586e-07 7.30606 0.703788 5.33267 2.02237C3.35928 3.34094 1.82121 5.21509 0.912959 7.4078C0.00470698 9.60051 -0.232933 12.0133 0.230089 14.3411C0.693112 16.6689 1.836 18.8071 3.51423 20.4853C5.19246 22.1635 7.33066 23.3064 9.65843 23.7694C11.9862 24.2324 14.399 23.9948 16.5917 23.0866C18.7844 22.1783 20.6586 20.6402 21.9771 18.6668C23.2957 16.6935 23.9995 14.3734 23.9995 12L11.9995 12L11.9995 1.04907e-06Z" fill="#D1D5DB"/>
<path d="M23.971 10.0702C23.975 8.75594 23.72 7.45377 23.2207 6.23804C22.7215 5.02231 21.9876 3.91683 21.0611 2.98471C20.1345 2.05259 19.0335 1.31209 17.8208 0.805496C16.6081 0.298897 15.3075 0.0361185 13.9932 0.0321638L13.9631 10.0401L23.971 10.0702Z" fill="#D1D5DB"/>
</svg>
