<svg width="24" height="24" viewBox="0 0 24 24" fill="none" xmlns="http://www.w3.org/2000/svg">
<path fill-rule="evenodd" clip-rule="evenodd" d="M22.7163 1.7627C22.8882 1.96651 22.9212 2.25348 22.8 2.49097L19.4002 9.15495C18.9417 10.0536 18.1613 10.4138 17.4528 10.0538L15.4067 9.01404C15.1957 8.90683 14.9631 8.99054 14.8058 9.23027L12.2235 13.167C11.8213 13.7802 11.2496 14.0595 10.6885 13.9169L8.56856 13.3783C8.32613 13.3167 8.0842 13.4918 7.96226 13.8171L6.33999 18.1451C6.18488 18.5589 5.66434 18.6906 5.33114 18.4003C5.13199 18.2268 5.06144 17.9479 5.15414 17.7006L6.94272 12.9289C7.30852 11.953 8.03433 11.4277 8.76161 11.6125L10.8815 12.1511C11.0686 12.1987 11.2591 12.1055 11.3932 11.9011L13.9755 7.96445C14.4473 7.24526 15.1451 6.99413 15.778 7.31576L17.8241 8.35552C18.0603 8.47553 18.3204 8.35546 18.4732 8.0559L21.6197 1.88875C21.835 1.46669 22.4109 1.4005 22.7163 1.7627Z" fill="#D1D5DB"/>
<path fill-rule="evenodd" clip-rule="evenodd" d="M2.3335 0C1.78121 0 1.3335 0.447716 1.3335 1V21H1C0.447715 21 0 21.4477 0 22C0 22.5523 0.447716 23 1 23H1.3335C1.3335 23.5523 1.78121 24 2.3335 24C2.88578 24 3.3335 23.5523 3.3335 23H23C23.5523 23 24 22.5523 24 22C24 21.4477 23.5523 21 23 21H3.3335V1C3.3335 0.447715 2.88578 0 2.3335 0Z" fill="#6B7280"/>
</svg>
