<svg width="56" height="24" viewBox="0 0 56 24" fill="none" xmlns="http://www.w3.org/2000/svg">
<rect width="56" height="24" rx="2" fill="#D1D5DB"/>
<path d="M41 11L44.5 15L48 11" stroke="#374151" stroke-width="2" stroke-linecap="round" stroke-linejoin="round"/>
<path d="M12.8613 13.0235C12.8613 13.6065 12.7642 14.1418 12.5698 14.6295C12.3755 15.1172 12.1023 15.537 11.7503 15.889C11.3983 16.241 10.9748 16.5142 10.4798 16.7085C9.98482 16.9028 9.43482 17 8.82982 17H5.79932V9.047H8.82982C9.43482 9.047 9.98482 9.146 10.4798 9.344C10.9748 9.53833 11.3983 9.8115 11.7503 10.1635C12.1023 10.5118 12.3755 10.9298 12.5698 11.4175C12.7642 11.9052 12.8613 12.4405 12.8613 13.0235ZM11.3433 13.0235C11.3433 12.5872 11.2847 12.1967 11.1673 11.852C11.0537 11.5037 10.8868 11.2103 10.6668 10.972C10.4505 10.73 10.1865 10.5448 9.87482 10.4165C9.56682 10.2882 9.21849 10.224 8.82982 10.224H7.28432V15.823H8.82982C9.21849 15.823 9.56682 15.7588 9.87482 15.6305C10.1865 15.5022 10.4505 15.3188 10.6668 15.0805C10.8868 14.8385 11.0537 14.5452 11.1673 14.2005C11.2847 13.8522 11.3433 13.4598 11.3433 13.0235ZM16.571 12.831C16.8496 12.831 17.0916 12.7962 17.297 12.7265C17.506 12.6568 17.6765 12.5615 17.8085 12.4405C17.9441 12.3158 18.045 12.1692 18.111 12.0005C18.177 11.8318 18.21 11.6467 18.21 11.445C18.21 11.0417 18.0761 10.7318 17.8085 10.5155C17.5445 10.2992 17.1393 10.191 16.593 10.191H15.647V12.831H16.571ZM20.377 17H19.0405C18.7875 17 18.6041 16.901 18.4905 16.703L16.8185 14.1565C16.7561 14.0612 16.6865 13.9933 16.6095 13.953C16.5361 13.9127 16.4261 13.8925 16.2795 13.8925H15.647V17H14.1675V9.047H16.593C17.132 9.047 17.594 9.10383 17.979 9.2175C18.3676 9.3275 18.6848 9.48333 18.9305 9.685C19.1798 9.88667 19.3631 10.1287 19.4805 10.411C19.5978 10.6897 19.6565 10.9977 19.6565 11.335C19.6565 11.6027 19.6161 11.8557 19.5355 12.094C19.4585 12.3323 19.3448 12.5487 19.1945 12.743C19.0478 12.9373 18.8645 13.1078 18.6445 13.2545C18.4281 13.4012 18.1806 13.5167 17.902 13.601C17.9973 13.656 18.0853 13.722 18.166 13.799C18.2466 13.8723 18.32 13.9603 18.386 14.063L20.377 17ZM28.7129 13.0235C28.7129 13.6065 28.6158 14.1473 28.4214 14.646C28.2308 15.141 27.9594 15.57 27.6074 15.933C27.2554 16.296 26.8319 16.5802 26.3369 16.7855C25.8419 16.9872 25.2919 17.088 24.6869 17.088C24.0856 17.088 23.5374 16.9872 23.0424 16.7855C22.5474 16.5802 22.1221 16.296 21.7664 15.933C21.4144 15.57 21.1413 15.141 20.9469 14.646C20.7526 14.1473 20.6554 13.6065 20.6554 13.0235C20.6554 12.4405 20.7526 11.9015 20.9469 11.4065C21.1413 10.9078 21.4144 10.477 21.7664 10.114C22.1221 9.751 22.5474 9.46867 23.0424 9.267C23.5374 9.06167 24.0856 8.959 24.6869 8.959C25.0903 8.959 25.4698 9.00667 25.8254 9.102C26.1811 9.19367 26.5074 9.32567 26.8044 9.498C27.1014 9.66667 27.3673 9.87383 27.6019 10.1195C27.8403 10.3615 28.0419 10.6328 28.2069 10.9335C28.3719 11.2342 28.4966 11.5605 28.5809 11.9125C28.6689 12.2645 28.7129 12.6348 28.7129 13.0235ZM27.2004 13.0235C27.2004 12.5872 27.1418 12.1967 27.0244 11.852C26.9071 11.5037 26.7403 11.2085 26.5239 10.9665C26.3076 10.7245 26.0436 10.5393 25.7319 10.411C25.4239 10.2827 25.0756 10.2185 24.6869 10.2185C24.2983 10.2185 23.9481 10.2827 23.6364 10.411C23.3284 10.5393 23.0644 10.7245 22.8444 10.9665C22.6281 11.2085 22.4613 11.5037 22.3439 11.852C22.2266 12.1967 22.1679 12.5872 22.1679 13.0235C22.1679 13.4598 22.2266 13.8522 22.3439 14.2005C22.4613 14.5452 22.6281 14.8385 22.8444 15.0805C23.0644 15.3188 23.3284 15.5022 23.6364 15.6305C23.9481 15.7588 24.2983 15.823 24.6869 15.823C25.0756 15.823 25.4239 15.7588 25.7319 15.6305C26.0436 15.5022 26.3076 15.3188 26.5239 15.0805C26.7403 14.8385 26.9071 14.5452 27.0244 14.2005C27.1418 13.8522 27.2004 13.4598 27.2004 13.0235ZM32.5972 13.0455C32.8685 13.0455 33.105 13.0125 33.3067 12.9465C33.5084 12.8768 33.6752 12.7797 33.8072 12.655C33.9429 12.5267 34.0437 12.3727 34.1097 12.193C34.1757 12.0097 34.2087 11.8062 34.2087 11.5825C34.2087 11.3698 34.1757 11.1773 34.1097 11.005C34.0437 10.8327 33.9447 10.686 33.8127 10.565C33.6807 10.444 33.5139 10.3523 33.3122 10.29C33.1105 10.224 32.8722 10.191 32.5972 10.191H31.4917V13.0455H32.5972ZM32.5972 9.047C33.1289 9.047 33.589 9.10933 33.9777 9.234C34.3664 9.35867 34.6872 9.53283 34.9402 9.7565C35.1932 9.98017 35.3802 10.2478 35.5012 10.5595C35.6259 10.8712 35.6882 11.2122 35.6882 11.5825C35.6882 11.9675 35.624 12.3213 35.4957 12.644C35.3674 12.963 35.1749 13.238 34.9182 13.469C34.6615 13.7 34.3389 13.8797 33.9502 14.008C33.5652 14.1363 33.1142 14.2005 32.5972 14.2005H31.4917V17H30.0122V9.047H32.5972Z" fill="#374151"/>
</svg>
