<svg xmlns="http://www.w3.org/2000/svg" width="20" height="25" viewBox="0 0 25 25" fill="#D1D5DB">
<path d="M13,12.5v4.95h1.15a.5.5,0,1,1,0,1H13V22.5a.5.5,0,0,1-1,0V13H10.85a.5.5,0,0,1,0-1H12V2.5a.5.5,0,0,1,1,0V6.55h1.15a.5.5,0,0,1,0,1H13Zm8.5,2.85H17.84a.508.508,0,0,0-.36.15l-2,2.1a.508.508,0,0,0,0,.69l2,2.11a.554.554,0,0,0,.36.15H21.5a.5.5,0,0,0,.5-.5v-4.2A.5.5,0,0,0,21.5,15.35ZM7.52,10.05a.508.508,0,0,0-.36-.15H3.5a.5.5,0,0,0-.5.5v4.2a.5.5,0,0,0,.5.5H7.16a.508.508,0,0,0,.36-.15l2-2.11a.5.5,0,0,0,0-.68ZM21.5,4.45H17.84a.554.554,0,0,0-.36.15l-2,2.11a.508.508,0,0,0,0,.69l2,2.1a.508.508,0,0,0,.36.15H21.5a.5.5,0,0,0,.5-.5V4.95A.5.5,0,0,0,21.5,4.45Z"/>
</svg>



