<svg width="52" height="10" viewBox="0 0 52 10" fill="none" xmlns="http://www.w3.org/2000/svg">
<circle cx="5" cy="5" r="4.5" stroke="#D1D5DB"/>
<circle cx="5" cy="5" r="1.5" fill="#D1D5DB" stroke="#D1D5DB"/>
<path d="M14.1858 9V1.3H17.6508C18.1421 1.3 18.5858 1.40633 18.9818 1.619C19.3851 1.83167 19.7004 2.125 19.9278 2.499C20.1551 2.86567 20.2688 3.28367 20.2688 3.753C20.2688 4.237 20.1551 4.67333 19.9278 5.062C19.7004 5.44333 19.3888 5.744 18.9928 5.964C18.5968 6.184 18.1494 6.294 17.6508 6.294H15.9678V9H14.1858ZM18.4538 9L16.4958 5.524L18.4098 5.249L20.5878 9H18.4538ZM15.9678 4.864H17.4858C17.6764 4.864 17.8414 4.82367 17.9808 4.743C18.1274 4.655 18.2374 4.534 18.3108 4.38C18.3914 4.226 18.4318 4.05 18.4318 3.852C18.4318 3.654 18.3878 3.48167 18.2998 3.335C18.2118 3.181 18.0834 3.06367 17.9148 2.983C17.7534 2.90233 17.5554 2.862 17.3208 2.862H15.9678V4.864ZM20.9304 9L23.9774 1.3H25.5614L28.5864 9H26.6944L25.2424 5.095C25.1837 4.941 25.1251 4.776 25.0664 4.6C25.0077 4.424 24.9491 4.24433 24.8904 4.061C24.8317 3.87033 24.7731 3.687 24.7144 3.511C24.6631 3.32767 24.6191 3.159 24.5824 3.005L24.9124 2.994C24.8684 3.17733 24.8171 3.357 24.7584 3.533C24.7071 3.709 24.6521 3.885 24.5934 4.061C24.5421 4.22967 24.4834 4.402 24.4174 4.578C24.3514 4.74667 24.2891 4.92267 24.2304 5.106L22.7784 9H20.9304ZM22.3824 7.526L22.9654 6.118H26.5074L27.0794 7.526H22.3824ZM29.5471 9V1.3H32.7701C33.3348 1.3 33.8518 1.39533 34.3211 1.586C34.7904 1.76933 35.1938 2.03333 35.5311 2.378C35.8758 2.72267 36.1398 3.12967 36.3231 3.599C36.5064 4.06833 36.5981 4.58533 36.5981 5.15C36.5981 5.71467 36.5064 6.23533 36.3231 6.712C36.1398 7.18133 35.8758 7.58833 35.5311 7.933C35.1938 8.27033 34.7904 8.53433 34.3211 8.725C33.8518 8.90833 33.3348 9 32.7701 9H29.5471ZM31.4171 7.724L31.1641 7.35H32.7151C33.0231 7.35 33.2981 7.29867 33.5401 7.196C33.7821 7.086 33.9874 6.93567 34.1561 6.745C34.3321 6.55433 34.4678 6.32333 34.5631 6.052C34.6584 5.78067 34.7061 5.48 34.7061 5.15C34.7061 4.82 34.6584 4.51933 34.5631 4.248C34.4678 3.97667 34.3321 3.74567 34.1561 3.555C33.9874 3.36433 33.7821 3.21767 33.5401 3.115C33.2981 3.005 33.0231 2.95 32.7151 2.95H31.1311L31.4171 2.598V7.724ZM37.729 9V7.427H39.027V2.873H37.729V1.3H42.206V2.873H40.897V7.427H42.206V9H37.729ZM47.3325 9.11C46.7458 9.11 46.2105 9.011 45.7265 8.813C45.2425 8.615 44.8208 8.33633 44.4615 7.977C44.1021 7.61767 43.8235 7.196 43.6255 6.712C43.4275 6.228 43.3285 5.69633 43.3285 5.117C43.3285 4.53767 43.4275 4.006 43.6255 3.522C43.8235 3.038 44.1021 2.61633 44.4615 2.257C44.8208 1.89767 45.2425 1.619 45.7265 1.421C46.2105 1.223 46.7421 1.124 47.3215 1.124C47.9008 1.124 48.4325 1.223 48.9165 1.421C49.4005 1.619 49.8221 1.89767 50.1815 2.257C50.5408 2.61633 50.8158 3.038 51.0065 3.522C51.2045 4.006 51.3035 4.53767 51.3035 5.117C51.3035 5.689 51.2045 6.22067 51.0065 6.712C50.8158 7.196 50.5408 7.61767 50.1815 7.977C49.8221 8.33633 49.4005 8.615 48.9165 8.813C48.4325 9.011 47.9045 9.11 47.3325 9.11ZM47.3215 7.35C47.6221 7.35 47.8971 7.295 48.1465 7.185C48.4031 7.075 48.6231 6.921 48.8065 6.723C48.9971 6.51767 49.1438 6.27933 49.2465 6.008C49.3491 5.73667 49.4005 5.43967 49.4005 5.117C49.4005 4.79433 49.3491 4.49733 49.2465 4.226C49.1438 3.95467 48.9971 3.72 48.8065 3.522C48.6231 3.31667 48.4031 3.159 48.1465 3.049C47.8971 2.939 47.6221 2.884 47.3215 2.884C47.0208 2.884 46.7421 2.939 46.4855 3.049C46.2361 3.159 46.0161 3.31667 45.8255 3.522C45.6348 3.72 45.4881 3.95467 45.3855 4.226C45.2901 4.49733 45.2425 4.79433 45.2425 5.117C45.2425 5.43967 45.2901 5.74033 45.3855 6.019C45.4881 6.29033 45.6348 6.525 45.8255 6.723C46.0161 6.921 46.2361 7.075 46.4855 7.185C46.7421 7.295 47.0208 7.35 47.3215 7.35Z" fill="#D1D5DB"/>
</svg>
