<svg width="56" height="18" viewBox="0 0 56 18" fill="none" xmlns="http://www.w3.org/2000/svg">
<rect width="56" height="18" rx="1" fill="#C4C4C4"/>
<path d="M55.9995 17C55.9995 17.5523 55.5518 18 54.9995 18L37.3328 18L37.3328 0L54.9995 1.76009e-06C55.5518 1.81511e-06 55.9995 0.447717 55.9995 1L55.9995 17Z" fill="#4B5563"/>
<path fill-rule="evenodd" clip-rule="evenodd" d="M37.3341 0H18.6675V18H37.3341V11.8349L41.6411 9.00107L37.3341 6.16728V0Z" fill="#6B7280"/>
<path fill-rule="evenodd" clip-rule="evenodd" d="M1 0C0.447715 0 0 0.447716 0 1V17C0 17.5523 0.447714 18 0.999998 18H18.6667V11.8352L22.9741 9.00107L18.6667 6.16696V0H1Z" fill="#9CA3AF"/>
<path d="M10.584 5V13H9.61523V6.01562H9.56836L7.61523 7.3125V6.32812L9.61523 5H10.584Z" fill="#1F2937"/>
<path d="M10.584 5V13H9.61523V6.01562H9.56836L7.61523 7.3125V6.32812L9.61523 5H10.584Z" fill="black" fill-opacity="0.2"/>
<path d="M25.998 13V12.2969L28.6387 9.40625C28.9486 9.06771 29.2038 8.77344 29.4043 8.52344C29.6048 8.27083 29.7533 8.03385 29.8496 7.8125C29.9486 7.58854 29.998 7.35417 29.998 7.10937C29.998 6.82813 29.9303 6.58464 29.7949 6.37891C29.6621 6.17318 29.4798 6.01432 29.248 5.90234C29.0163 5.79036 28.7559 5.73437 28.4668 5.73437C28.1595 5.73437 27.8913 5.79818 27.6621 5.92578C27.4355 6.05078 27.2598 6.22656 27.1348 6.45312C27.0124 6.67969 26.9512 6.94531 26.9512 7.25H26.0293C26.0293 6.78125 26.1374 6.36979 26.3535 6.01562C26.5697 5.66146 26.8639 5.38542 27.2363 5.1875C27.6113 4.98958 28.0319 4.89062 28.498 4.89062C28.9668 4.89062 29.3822 4.98958 29.7441 5.1875C30.1061 5.38542 30.39 5.65234 30.5957 5.98828C30.8014 6.32422 30.9043 6.69792 30.9043 7.10937C30.9043 7.40365 30.8509 7.69141 30.7441 7.97266C30.64 8.2513 30.4577 8.5625 30.1973 8.90625C29.9395 9.2474 29.5814 9.66406 29.123 10.1562L27.3262 12.0781V12.1406H31.0449V13H25.998Z" fill="#1F2937"/>
<path d="M25.998 13V12.2969L28.6387 9.40625C28.9486 9.06771 29.2038 8.77344 29.4043 8.52344C29.6048 8.27083 29.7533 8.03385 29.8496 7.8125C29.9486 7.58854 29.998 7.35417 29.998 7.10937C29.998 6.82813 29.9303 6.58464 29.7949 6.37891C29.6621 6.17318 29.4798 6.01432 29.248 5.90234C29.0163 5.79036 28.7559 5.73437 28.4668 5.73437C28.1595 5.73437 27.8913 5.79818 27.6621 5.92578C27.4355 6.05078 27.2598 6.22656 27.1348 6.45312C27.0124 6.67969 26.9512 6.94531 26.9512 7.25H26.0293C26.0293 6.78125 26.1374 6.36979 26.3535 6.01562C26.5697 5.66146 26.8639 5.38542 27.2363 5.1875C27.6113 4.98958 28.0319 4.89062 28.498 4.89062C28.9668 4.89062 29.3822 4.98958 29.7441 5.1875C30.1061 5.38542 30.39 5.65234 30.5957 5.98828C30.8014 6.32422 30.9043 6.69792 30.9043 7.10937C30.9043 7.40365 30.8509 7.69141 30.7441 7.97266C30.64 8.2513 30.4577 8.5625 30.1973 8.90625C29.9395 9.2474 29.5814 9.66406 29.123 10.1562L27.3262 12.0781V12.1406H31.0449V13H25.998Z" fill="black" fill-opacity="0.2"/>
<path d="M48.5293 13.1094C48.0137 13.1094 47.554 13.0208 47.1504 12.8437C46.7493 12.6667 46.4303 12.4206 46.1934 12.1055C45.959 11.7878 45.8314 11.4193 45.8105 11H46.7949C46.8158 11.2578 46.9043 11.4805 47.0605 11.668C47.2168 11.8529 47.4212 11.9961 47.6738 12.0977C47.9264 12.1992 48.2064 12.25 48.5137 12.25C48.8574 12.25 49.1621 12.1901 49.4277 12.0703C49.6934 11.9505 49.9017 11.7839 50.0527 11.5703C50.2038 11.3568 50.2793 11.1094 50.2793 10.8281C50.2793 10.5339 50.2064 10.2747 50.0605 10.0508C49.9147 9.82422 49.7012 9.64714 49.4199 9.51953C49.1387 9.39193 48.7949 9.32812 48.3887 9.32812H47.748V8.46875H48.3887C48.7064 8.46875 48.985 8.41146 49.2246 8.29687C49.4668 8.18229 49.6556 8.02083 49.791 7.8125C49.929 7.60417 49.998 7.35937 49.998 7.07812C49.998 6.80729 49.9382 6.57161 49.8184 6.37109C49.6986 6.17057 49.5293 6.01432 49.3105 5.90234C49.0944 5.79036 48.8392 5.73437 48.5449 5.73437C48.2689 5.73437 48.0085 5.78516 47.7637 5.88672C47.5215 5.98568 47.3236 6.13021 47.1699 6.32031C47.0163 6.50781 46.9329 6.73438 46.9199 7H45.9824C45.998 6.58073 46.1243 6.21354 46.3613 5.89844C46.5983 5.58073 46.9082 5.33333 47.291 5.15625C47.6764 4.97917 48.0996 4.89062 48.5605 4.89062C49.0553 4.89062 49.4798 4.99089 49.834 5.19141C50.1882 5.38932 50.4603 5.65104 50.6504 5.97656C50.8405 6.30208 50.9355 6.65365 50.9355 7.03125C50.9355 7.48177 50.8171 7.86589 50.5801 8.18359C50.3457 8.5013 50.0267 8.72135 49.623 8.84375V8.90625C50.1283 8.98958 50.5228 9.20443 50.8066 9.55078C51.0905 9.89453 51.2324 10.3203 51.2324 10.8281C51.2324 11.263 51.1139 11.6536 50.877 12C50.6426 12.3437 50.3223 12.6146 49.916 12.8125C49.5098 13.0104 49.0475 13.1094 48.5293 13.1094Z" fill="#D1D5DB"/>
</svg>
