<svg width="56" height="24" viewBox="0 0 56 24" fill="none" xmlns="http://www.w3.org/2000/svg">
<rect width="56" height="24" rx="1" fill="#D1D5DB"/>
<path d="M16.5091 16V9.95H14.2211V8.3H20.7221V9.95H18.3791V16H16.5091ZM22.0451 16V8.3H27.4131V9.895H23.8601V14.405H27.5231V16H22.0451ZM22.9251 12.843V11.325H26.9181V12.843H22.9251ZM33.656 16L31.269 12.546L28.211 8.3H30.488L32.82 11.71L35.933 16H33.656ZM28.156 16L31.093 11.809L32.6 12.678L30.323 16H28.156ZM32.996 12.425L31.5 11.589L33.656 8.3H35.823L32.996 12.425ZM38.5629 16V9.95H36.2749V8.3H42.7759V9.95H40.4329V16H38.5629Z" fill="#4B5563"/>
</svg>
