<svg width="14" height="14" viewBox="0 0 14 14" fill="none" xmlns="http://www.w3.org/2000/svg">
<path d="M5.63123 6.11165C4.75766 6.11165 4.05249 6.85599 4.05249 7.77809C4.05249 8.50576 3.44205 8.88904 3 8.88904C3.48415 9.56673 4.31035 10 5.10499 10C6.26799 10 7.20997 9.00569 7.20997 7.77809C7.20997 6.85599 6.5048 6.11165 5.63123 6.11165ZM12.8461 0.906819L12.1409 0.162477C11.9357 -0.0541591 11.6041 -0.0541591 11.3989 0.162477L6.68373 5.13956L8.1309 6.66713L12.8461 1.69004C13.0513 1.47341 13.0513 1.12346 12.8461 0.906819Z" fill="#D1D5DB"/>
<rect x="0.5" y="0.5" width="12.5" height="12.5" rx="1.5" stroke="#D1D5DB"/>
</svg>
